<svg xmlns="http://www.w3.org/2000/svg" width="64" height="64" fill="none"><path fill="url(#a)" fill-rule="evenodd" d="M22.857 13.714h27.429C57.86 13.714 64 19.854 64 27.43v22.857C64 57.86 57.86 64 50.286 64H13.714C6.14 64 0 57.86 0 50.286v-4.572h9.143v4.572a4.571 4.571 0 0 0 4.571 4.571h36.572a4.571 4.571 0 0 0 4.571-4.571V27.429a4.571 4.571 0 0 0-4.571-4.572H22.857v13.714L0 18.286 22.857 0z" clip-rule="evenodd"/><defs><linearGradient id="a" x1="32" x2="32" y1="0" y2="64" gradientUnits="userSpaceOnUse"><stop stop-color="#BC8F8F"/><stop offset=".25" stop-color="#9F6060"/><stop offset="1" stop-color="#503030"/></linearGradient></defs></svg>