<svg xmlns="http://www.w3.org/2000/svg" width="59" height="64" fill="none"><path fill="url(#a)" d="M40.089 48.762a3.02 3.02 0 0 1 3.052 3.047c0 1.707-1.343 3.048-3.052 3.048s-3.053-1.34-3.053-3.047a3.02 3.02 0 0 1 3.053-3.048m0-9.143c-8.334 0-15.447 5.06-18.316 12.19C24.643 58.942 31.755 64 40.089 64c8.333 0 15.446-5.059 18.315-12.19-2.87-7.132-9.982-12.191-18.315-12.191m0 19.81a7.638 7.638 0 0 1-5.397-2.232 7.613 7.613 0 0 1-2.235-5.387 7.613 7.613 0 0 1 2.235-5.388 7.638 7.638 0 0 1 5.397-2.231c2.024 0 3.965.802 5.396 2.231a7.613 7.613 0 0 1 2.235 5.388 7.613 7.613 0 0 1-2.235 5.387 7.638 7.638 0 0 1-5.396 2.232m-23.597-4.572H6.51V6.095h21.368v15.238h15.263v12.404c2.137.244 4.152.762 6.105 1.493V18.287L30.931 0H6.51a6.11 6.11 0 0 0-4.318 1.785 6.09 6.09 0 0 0-1.788 4.31v48.762a6.09 6.09 0 0 0 1.788 4.31 6.11 6.11 0 0 0 4.317 1.785h13.737c-1.526-1.798-2.777-3.87-3.754-6.095"/><defs><linearGradient id="a" x1="29.404" x2="29.404" y1="0" y2="64" gradientUnits="userSpaceOnUse"><stop stop-color="hsl(0, 30%, 65%)"/><stop offset=".7" stop-color="hsl(0, 30%, 50%)"/><stop offset="1" stop-color="hsl(0, 30%, 30%)"/></linearGradient></defs></svg>