<svg xmlns="http://www.w3.org/2000/svg" width="16" height="16" fill="none" viewBox="0 0 32 32"><g clip-path="url(#a)"><path fill="#FFE6EA" fill-rule="evenodd" d="M27.473 25.664A14.94 14.94 0 0 0 31 16c0-8.284-6.716-15-15-15S1 7.716 1 16s6.716 15 15 15c3.166 0 6.103-.98 8.524-2.655a.137.137 0 0 1-.004-.004c-.33-.35-.52-.82-.52-1.34 0-1.1.9-2 2-2 .58 0 1.11.25 1.47.66zM9 16c0-1.019-.78-1.87-1.77-1.98v-.01C7.16 14 7.08 14 7 14c-1.1 0-2 .901-2 2 0 1.1.9 2 2 2 .08 0 .16 0 .23-.009v-.01C8.22 17.871 9 17.02 9 16" clip-rule="evenodd"/><path fill="#FFC44D" d="M26 25c.58 0 1.11.25 1.47.66.34.35.53.82.53 1.34 0 1.1-.9 2-2 2-.58 0-1.11-.25-1.48-.66-.33-.35-.52-.82-.52-1.34 0-1.1.9-2 2-2M7.23 14.02C8.22 14.13 9 14.98 9 16s-.78 1.87-1.77 1.98v.01C7.16 18 7.08 18 7 18c-1.1 0-2-.9-2-2s.9-2 2-2c.08 0 .16 0 .23.01z"/><path stroke="#000" stroke-linecap="round" stroke-linejoin="round" stroke-width="2" d="M29.27 22.999A14.927 14.927 0 0 0 31 16c0-8.284-6.715-15-15-15v15M13 1.3C6.153 2.69 1 8.744 1 16c0 8.284 6.716 15 15 15 3.189 0 6.11-.937 8.541-2.634M8.517 21.002A9 9 0 0 0 25 16a9 9 0 0 0-9-9m-3 .512C10.09 8.54 7.887 10.937 7.223 14M9 16a2 2 0 1 0-4.001.001A2 2 0 0 0 9 16m19 11a2 2 0 1 0-4.001.001A2 2 0 0 0 28 27"/></g><defs><clipPath id="a"><path fill="#fff" d="M0 0h32v32H0z"/></clipPath></defs></svg>