<svg xmlns="http://www.w3.org/2000/svg" width="16" height="16" fill="none" viewBox="0 0 32 32"><g clip-path="url(#a)"><path fill="#FFC44D" d="M26.8901 19.3101c2.38.78 4.11 3.04 4.11 5.69 0 3.31-2.69 6-6 6s-6-2.69-6-6 2.69-6 6-6c.66 0 1.3.11 1.89.31"/><path fill="#FFE6EA" d="m27 19-.11.31c-.59-.2-1.23-.31-1.89-.31-3.31 0-6 2.69-6 6s2.69 6 6 6H2c-1 0-1-1-1-1V2c0-1 1-1 1-1h15v9s0 1 1 1h9z"/><path fill="#668077" d="M26 9c1 1 1 2 1 2h-9c-1 0-1-1-1-1V1s1 0 2 1z"/><path stroke="#000" stroke-linecap="round" stroke-linejoin="round" stroke-width="2" d="M27 16v-5s0-1-1-2l-7-7c-1-1-2-1-2-1m0 0H2S1 1 1 2v28s0 1 1 1h16M17 1v9s0 1 1 1h5m0 14h4m-2 2v-4m6 2c0-3.313-2.687-6-6-6s-6 2.687-6 6 2.687 6 6 6 6-2.687 6-6"/></g><defs><clipPath id="a"><path fill="#fff" d="M0 0h32v32H0z"/></clipPath></defs></svg>