<svg xmlns="http://www.w3.org/2000/svg" width="128" height="64" fill="none" viewBox="0 0 129 64"><path fill="url(#a)" fill-rule="evenodd" d="M.6291 47.3482c-1.377-2.3275-.4184-5.2294 2.141-6.4816L26.175 29.4157 21.6878 5.5935c-.3333-1.7696.4506-3.56 2.0301-4.6369 1.5796-1.077 3.6891-1.2593 5.4635-.4722L61.0446 14.617c1.7743.787 2.9151 2.411 2.9543 4.206.0393 1.795-1.0295 3.459-2.768 4.3095l-23.4048 11.451 4.4871 23.8223c.4906 2.605-1.4338 5.0785-4.2983 5.5247-2.8646.4463-5.5845-1.3038-6.0752-3.9088l-3.8904-20.6548-20.2929 9.9284c-2.5593 1.2522-5.7503.3804-7.1273-1.9471m35.3226-22.7158 11.2525-5.5054-13.4097-5.9478z" clip-rule="evenodd"/><path fill="url(#b)" d="M111.576 21.616h8.32c2.027 0 3.627.1387 4.8.416 1.195.2773 2.059.768 2.592 1.472.555.6827.832 1.6427.832 2.88v3.936c0 1.3653-.298 2.432-.896 3.2-.576.768-1.504 1.312-2.784 1.632-1.258.32-2.965.48-5.12.48h-2.752v6.752h-4.992zm8.16 10.592c1.302 0 2.219-.1493 2.752-.448.534-.32.8-.8533.8-1.6v-3.328c0-.6827-.256-1.1307-.768-1.344-.49-.2133-1.44-.32-2.848-.32h-3.104v7.04z"/><path fill="url(#c)" d="M95.648 31.792 88.32 21.616h5.76l4.448 6.912 4.416-6.912h5.76l-7.328 10.176 7.68 10.592h-5.792l-4.736-7.36-4.768 7.36H88z"/><defs><linearGradient id="b" x1="-23.5183" x2="-23.5183" y1="-28.4499" y2="85.5716" gradientUnits="userSpaceOnUse"><stop stop-color="#8A609F"/><stop offset=".6875" stop-color="#9F6060"/><stop offset="1" stop-color="#804D4D"/></linearGradient><linearGradient id="c" x1="108.539" x2="108.539" y1="12.384" y2="49.384" gradientUnits="userSpaceOnUse"><stop stop-color="#8A609F"/><stop offset=".6875" stop-color="#9F6060"/><stop offset="1" stop-color="#804D4D"/></linearGradient><radialGradient id="a" cx="0" cy="0" r="1" gradientTransform="rotate(69.34 23.4404 41.2844)scale(58.1689 109.396)" gradientUnits="userSpaceOnUse"><stop stop-color="#8A609F"/><stop offset=".6615" stop-color="#9F6060"/><stop offset="1" stop-color="#804D4D"/></radialGradient></defs></svg>