<svg xmlns="http://www.w3.org/2000/svg" width="32" height="32" fill="none" viewBox="0 0 33 32"><path fill="url(#a)" fill-rule="evenodd" d="M.7189 23.6741c-.6885-1.1637-.2092-2.6147 1.0705-3.2408l11.7024-5.7254-2.2436-11.9112c-.1666-.8847.2253-1.78 1.0151-2.3184.7897-.5385 1.8445-.6296 2.7317-.2361l15.9316 7.0664c.8872.3935 1.4575 1.2055 1.4772 2.103.0196.8974-.5148 1.7294-1.3841 2.1547l-11.7023 5.7255 2.2435 11.9111c.2453 1.3025-.7169 2.5393-2.1492 2.7624-1.4322.2231-2.7922-.652-3.0375-1.9545l-1.9453-10.3273-10.1464 4.9641c-1.2797.6261-2.8752.1903-3.5636-.9735m17.6613-11.3579 5.6262-2.7527-6.7049-2.9739z" clip-rule="evenodd"/><defs><radialGradient id="a" cx="0" cy="0" r="1" gradientTransform="matrix(5.12592 27.21406 -28.20071 5.31176 13.8416 2.3928)" gradientUnits="userSpaceOnUse"><stop stop-color="#8A609F"/><stop offset=".6615" stop-color="#9F6060"/><stop offset="1" stop-color="#804D4D"/></radialGradient></defs></svg>