<svg xmlns="http://www.w3.org/2000/svg" width="59" height="64" fill="none"><path fill="url(#a)" d="M40.0885 48.7619c1.7095 0 3.0526 1.341 3.0526 3.0476 0 1.7067-1.3431 3.0476-3.0526 3.0476s-3.0526-1.3409-3.0526-3.0476c0-1.7066 1.3431-3.0476 3.0526-3.0476m0-9.1429c-8.3337 0-15.4463 5.0591-18.3158 12.1905C24.6422 58.941 31.7548 64 40.0885 64c8.3337 0 15.4463-5.059 18.3158-12.1905-2.8695-7.1314-9.9821-12.1905-18.3158-12.1905m0 19.8096a7.6377 7.6377 0 0 1-5.3963-2.2316 7.6127 7.6127 0 0 1-2.2353-5.3875 7.6129 7.6129 0 0 1 2.2353-5.3875 7.638 7.638 0 0 1 5.3963-2.2315c2.024 0 3.9652.8027 5.3963 2.2315a7.6129 7.6129 0 0 1 2.2353 5.3875 7.6127 7.6127 0 0 1-2.2353 5.3875 7.6375 7.6375 0 0 1-5.3963 2.2316m-23.5968-4.5715H6.5096V6.0952H27.878v15.2381h15.2631v12.4038c2.1369.2439 4.1516.7619 6.1053 1.4934V18.2857L30.9306 0H6.5096a6.1104 6.1104 0 0 0-4.3171 1.7853 6.0902 6.0902 0 0 0-1.7882 4.31V54.857a6.0902 6.0902 0 0 0 1.7882 4.31 6.1103 6.1103 0 0 0 4.317 1.7853h13.7369c-1.5263-1.7981-2.7779-3.8705-3.7547-6.0953"/><defs><linearGradient id="a" x1="29.4043" x2="29.4043" y1="0" y2="64" gradientUnits="userSpaceOnUse"><stop stop-color="#BC8F8F"/><stop offset=".2813" stop-color="#9F6060"/><stop offset="1" stop-color="#503030"/></linearGradient></defs></svg>