<svg xmlns="http://www.w3.org/2000/svg" width="16" height="16" fill="none" viewBox="0 0 32 32"><g clip-path="url(#a)"><path fill="#FFE6EA" fill-rule="evenodd" d="M27.4729 25.6635C29.6737 23.0532 31 19.6815 31 16c0-8.2843-6.7157-15-15-15S1 7.7157 1 16s6.7157 15 15 15c3.1661 0 6.1031-.9809 8.5237-2.6554a.137.137 0 0 1-.0037-.0041c-.33-.35-.52-.82-.52-1.34 0-1.1.9-2 2-2 .58 0 1.11.25 1.47.66zM9 16c0-1.019-.78-1.87-1.77-1.98v-.01C7.16 14 7.08 14 7 14c-1.1 0-2 .901-2 2 0 1.1.9 2 2 2 .08 0 .16 0 .23-.009v-.01C8.22 17.871 9 17.02 9 16" clip-rule="evenodd"/><path fill="#FFC44D" d="M26 25c.58 0 1.11.25 1.47.66.34.35.53.82.53 1.34 0 1.1-.9 2-2 2-.58 0-1.11-.25-1.48-.66-.33-.35-.52-.82-.52-1.34 0-1.1.9-2 2-2M7.23 14.0195c.99.11 1.77.961 1.77 1.98 0 1.02-.78 1.871-1.77 1.981v.01c-.07.009-.15.009-.23.009-1.1 0-2-.9-2-2 0-1.099.9-2 2-2 .08 0 .16 0 .23.01z"/><path stroke="#000" stroke-linecap="round" stroke-linejoin="round" stroke-width="2" d="M29.2695 22.999c1.105-2.089 1.73-4.472 1.73-6.999 0-8.284-6.715-15-15-15L16 16M13 1.3008c-6.847 1.389-12 7.442-12 14.699 0 8.284 6.716 15 15 15 3.189 0 6.11-.937 8.541-2.634M8.5166 21.002c1.615 2.41 4.364 3.998 7.483 3.998 4.971 0 9-4.029 9-9s-4.029-9-9-9M13 7.5117c-2.91 1.028-5.113 3.425-5.777 6.488M9 16c0-1.104-.896-2-2-2s-2 .896-2 2 .896 2 2 2 2-.896 2-2m19 11c0-1.104-.896-2-2-2s-2 .896-2 2 .896 2 2 2 2-.896 2-2"/></g><defs><clipPath id="a"><path fill="#fff" d="M0 0h32v32H0z"/></clipPath></defs></svg>