<svg width="2469" height="1304" viewBox="0 0 2469 1304" fill="none" xmlns="http://www.w3.org/2000/svg">
<path d="M42 41H2426.4V39H42V41ZM2427.4 42V1262H2429.4V42H2427.4ZM2426.4 1263H42V1265H2426.4V1263ZM41 1262V42H39V1262H41ZM42 1263C41.4477 1263 41 1262.55 41 1262H39C39 1263.66 40.3432 1265 42 1265V1263ZM2427.4 1262C2427.4 1262.55 2426.96 1263 2426.4 1263V1265C2428.06 1265 2429.4 1263.66 2429.4 1262H2427.4ZM2426.4 41C2426.96 41 2427.4 41.4477 2427.4 42H2429.4C2429.4 40.3431 2428.06 39 2426.4 39V41ZM42 39C40.3431 39 39 40.3432 39 42H41C41 41.4477 41.4477 41 42 41V39Z" fill="white" fill-opacity="0.1"/>
<path fill-rule="evenodd" clip-rule="evenodd" d="M337.033 1147.35C335.656 1145.02 336.615 1142.12 339.174 1140.87L362.579 1129.42L358.092 1105.59C357.759 1103.82 358.543 1102.03 360.122 1100.96C361.702 1099.88 363.811 1099.7 365.586 1100.48L397.449 1114.62C399.223 1115.4 400.364 1117.03 400.403 1118.82C400.443 1120.62 399.374 1122.28 397.635 1123.13L374.23 1134.58L378.717 1158.41C379.208 1161.01 377.284 1163.48 374.419 1163.93C371.555 1164.38 368.835 1162.63 368.344 1160.02L364.454 1139.37L344.161 1149.3C341.601 1150.55 338.41 1149.68 337.033 1147.35ZM372.356 1124.63L383.608 1119.13L370.199 1113.18L372.356 1124.63Z" fill="url(#paint0_radial_0_1)"/>
<g clip-path="url(#clip0_0_1)">
<rect width="360" height="800" transform="translate(464.404 364)" fill="#1F1F1F"/>
<rect width="360" height="800" transform="translate(464.404 364)" fill="url(#paint1_linear_0_1)"/>
<path d="M502 1110C500.906 1110 500 1110.91 500 1112V1128C500 1129.09 500.906 1130 502 1130H514C515.094 1130 516 1129.09 516 1128V1116L510 1110H502ZM502 1112H509V1117H514V1128H502V1112ZM504 1120V1122H512V1120H504ZM504 1124V1126H512V1124H504Z" fill="#A3998F"/>
<path d="M533.68 1119.73H537.856V1125.54C537.291 1125.74 536.688 1125.89 536.048 1126C535.419 1126.11 534.725 1126.16 533.968 1126.16C532.891 1126.16 531.968 1125.93 531.2 1125.47C530.443 1125.01 529.861 1124.35 529.456 1123.47C529.051 1122.6 528.848 1121.53 528.848 1120.27C528.848 1119.08 529.067 1118.04 529.504 1117.17C529.941 1116.29 530.576 1115.62 531.408 1115.14C532.24 1114.66 533.259 1114.42 534.464 1114.42C535.072 1114.42 535.653 1114.48 536.208 1114.61C536.773 1114.73 537.285 1114.89 537.744 1115.1L537.024 1116.78C536.651 1116.6 536.245 1116.45 535.808 1116.34C535.381 1116.21 534.923 1116.14 534.432 1116.14C533.707 1116.14 533.093 1116.31 532.592 1116.66C532.101 1117 531.723 1117.48 531.456 1118.11C531.2 1118.73 531.072 1119.46 531.072 1120.3C531.072 1121.11 531.184 1121.83 531.408 1122.46C531.632 1123.08 531.968 1123.57 532.416 1123.92C532.875 1124.26 533.467 1124.43 534.192 1124.43C534.416 1124.43 534.624 1124.42 534.816 1124.4C535.008 1124.38 535.184 1124.35 535.344 1124.32C535.515 1124.29 535.664 1124.26 535.792 1124.22V1121.47H533.68V1119.73ZM547.545 1117.33V1126H545.913L545.641 1124.88H545.529C545.358 1125.18 545.139 1125.42 544.873 1125.62C544.606 1125.8 544.313 1125.93 543.993 1126.02C543.673 1126.11 543.342 1126.16 543.001 1126.16C542.403 1126.16 541.886 1126.05 541.449 1125.82C541.011 1125.6 540.67 1125.26 540.425 1124.8C540.19 1124.33 540.073 1123.73 540.073 1122.99V1117.33H542.201V1122.59C542.201 1123.23 542.307 1123.72 542.521 1124.05C542.745 1124.37 543.097 1124.53 543.577 1124.53C544.057 1124.53 544.43 1124.42 544.697 1124.19C544.974 1123.96 545.166 1123.62 545.273 1123.18C545.379 1122.75 545.433 1122.21 545.433 1121.57V1117.33H547.545ZM551.999 1117.33V1126H549.887V1117.33H551.999ZM550.959 1113.98C551.268 1113.98 551.535 1114.06 551.759 1114.22C551.983 1114.37 552.095 1114.65 552.095 1115.04C552.095 1115.42 551.983 1115.7 551.759 1115.87C551.535 1116.03 551.268 1116.11 550.959 1116.11C550.628 1116.11 550.351 1116.03 550.127 1115.87C549.903 1115.7 549.791 1115.42 549.791 1115.04C549.791 1114.65 549.903 1114.37 550.127 1114.22C550.351 1114.06 550.628 1113.98 550.959 1113.98ZM556.996 1126.16C556.068 1126.16 555.316 1125.79 554.74 1125.04C554.164 1124.28 553.876 1123.16 553.876 1121.68C553.876 1120.2 554.17 1119.08 554.756 1118.32C555.343 1117.55 556.111 1117.17 557.06 1117.17C557.455 1117.17 557.796 1117.23 558.084 1117.34C558.383 1117.45 558.639 1117.6 558.852 1117.79C559.066 1117.98 559.252 1118.2 559.412 1118.43H559.476C559.455 1118.28 559.428 1118.05 559.396 1117.74C559.364 1117.43 559.348 1117.15 559.348 1116.88V1113.84H561.476V1126H559.844L559.444 1124.86H559.348C559.21 1125.1 559.034 1125.32 558.82 1125.52C558.607 1125.71 558.351 1125.87 558.052 1125.98C557.754 1126.1 557.402 1126.16 556.996 1126.16ZM557.7 1124.53C558.351 1124.53 558.81 1124.31 559.076 1123.89C559.343 1123.46 559.476 1122.82 559.476 1121.95V1121.7C559.476 1120.76 559.348 1120.04 559.092 1119.55C558.836 1119.06 558.367 1118.82 557.684 1118.82C557.151 1118.82 556.74 1119.07 556.452 1119.58C556.175 1120.09 556.036 1120.79 556.036 1121.71C556.036 1122.63 556.18 1123.33 556.468 1123.81C556.756 1124.29 557.167 1124.53 557.7 1124.53ZM567.185 1117.17C567.932 1117.17 568.572 1117.33 569.105 1117.65C569.649 1117.96 570.07 1118.41 570.369 1118.99C570.668 1119.57 570.817 1120.27 570.817 1121.1V1122.13H565.505C565.526 1122.92 565.718 1123.53 566.081 1123.97C566.454 1124.39 566.977 1124.61 567.649 1124.61C568.182 1124.61 568.657 1124.55 569.073 1124.45C569.489 1124.33 569.921 1124.17 570.369 1123.95V1125.57C569.964 1125.77 569.542 1125.92 569.105 1126.02C568.668 1126.11 568.129 1126.16 567.489 1126.16C566.678 1126.16 565.958 1126 565.329 1125.68C564.71 1125.35 564.225 1124.85 563.873 1124.19C563.521 1123.53 563.345 1122.71 563.345 1121.73C563.345 1120.74 563.505 1119.9 563.825 1119.23C564.145 1118.55 564.593 1118.04 565.169 1117.7C565.756 1117.34 566.428 1117.17 567.185 1117.17ZM567.217 1118.66C566.737 1118.66 566.348 1118.83 566.049 1119.18C565.761 1119.53 565.59 1120.04 565.537 1120.72H568.801C568.801 1120.31 568.742 1119.96 568.625 1119.65C568.508 1119.34 568.332 1119.1 568.097 1118.93C567.873 1118.75 567.58 1118.66 567.217 1118.66Z" fill="#A3998F"/>
<path d="M741 1110C735.489 1110 731 1114.49 731 1120C731 1125.51 735.489 1130 741 1130C746.511 1130 751 1125.51 751 1120C751 1114.49 746.511 1110 741 1110ZM741 1112C745.43 1112 749 1115.57 749 1120C749 1124.43 745.43 1128 741 1128C736.57 1128 733 1124.43 733 1120C733 1115.57 736.57 1112 741 1112ZM740 1115V1117H742V1115H740ZM740 1119V1125H742V1119H740Z" fill="#A3998F"/>
<path d="M766.28 1126H761.528V1124.83L762.84 1124.32V1116.27L761.528 1115.74V1114.58H766.28V1115.74L764.984 1116.27V1124.32L766.28 1124.83V1126ZM772.54 1117.17C773.447 1117.17 774.161 1117.42 774.684 1117.92C775.207 1118.42 775.468 1119.23 775.468 1120.35V1126H773.34V1120.75C773.34 1120.1 773.228 1119.62 773.004 1119.3C772.78 1118.97 772.428 1118.8 771.948 1118.8C771.233 1118.8 770.748 1119.06 770.492 1119.57C770.236 1120.07 770.108 1120.8 770.108 1121.76V1126H767.98V1117.33H769.612L769.916 1118.46H769.996C770.188 1118.17 770.412 1117.92 770.668 1117.73C770.924 1117.54 771.212 1117.4 771.532 1117.31C771.852 1117.22 772.188 1117.17 772.54 1117.17ZM782.162 1118.85H780.242V1126H778.114V1118.85H776.866V1117.89L778.13 1117.31V1116.72C778.13 1115.97 778.237 1115.39 778.45 1114.96C778.663 1114.53 778.978 1114.23 779.394 1114.05C779.81 1113.86 780.317 1113.76 780.914 1113.76C781.309 1113.76 781.666 1113.8 781.986 1113.87C782.317 1113.94 782.61 1114.01 782.866 1114.1L782.354 1115.6C782.194 1115.55 782.013 1115.5 781.81 1115.46C781.618 1115.4 781.415 1115.38 781.202 1115.38C780.871 1115.38 780.626 1115.5 780.466 1115.74C780.317 1115.99 780.242 1116.33 780.242 1116.77V1117.33H782.162V1118.85ZM790.905 1121.65C790.905 1122.37 790.814 1123.01 790.633 1123.57C790.452 1124.12 790.185 1124.6 789.833 1124.99C789.492 1125.38 789.076 1125.67 788.585 1125.87C788.094 1126.06 787.545 1126.16 786.937 1126.16C786.372 1126.16 785.844 1126.06 785.353 1125.87C784.873 1125.67 784.457 1125.38 784.105 1124.99C783.764 1124.6 783.497 1124.12 783.305 1123.57C783.113 1123.01 783.017 1122.37 783.017 1121.65C783.017 1120.69 783.172 1119.88 783.481 1119.22C783.801 1118.54 784.26 1118.04 784.857 1117.7C785.454 1117.34 786.164 1117.17 786.985 1117.17C787.753 1117.17 788.43 1117.34 789.017 1117.7C789.604 1118.04 790.062 1118.54 790.393 1119.22C790.734 1119.88 790.905 1120.69 790.905 1121.65ZM785.177 1121.65C785.177 1122.26 785.241 1122.78 785.369 1123.22C785.497 1123.64 785.689 1123.97 785.945 1124.19C786.212 1124.42 786.553 1124.53 786.969 1124.53C787.385 1124.53 787.721 1124.42 787.977 1124.19C788.244 1123.97 788.436 1123.64 788.553 1123.22C788.681 1122.78 788.745 1122.26 788.745 1121.65C788.745 1121.03 788.681 1120.51 788.553 1120.1C788.425 1119.67 788.228 1119.35 787.961 1119.14C787.705 1118.91 787.369 1118.8 786.953 1118.8C786.324 1118.8 785.87 1119.05 785.593 1119.54C785.316 1120.03 785.177 1120.73 785.177 1121.65Z" fill="#A3998F"/>
<path d="M545.91 686.232H550.902V703.448H561.11V707H545.91V686.232ZM572.056 707.32C566.574 707.32 563.832 705.645 563.832 702.296V696.728C563.832 694.787 564.451 693.379 565.688 692.504C566.947 691.629 568.878 691.192 571.48 691.192C573.934 691.192 575.726 691.619 576.856 692.472C578.008 693.304 578.584 694.723 578.584 696.728V700.504H568.536V701.912C568.536 702.808 568.856 703.448 569.496 703.832C570.136 704.216 571.288 704.408 572.952 704.408C574.488 704.408 576.216 704.184 578.136 703.736V706.712C576.238 707.117 574.211 707.32 572.056 707.32ZM574.136 697.848V695.608C574.136 695.096 573.923 694.712 573.496 694.456C573.091 694.2 572.398 694.072 571.416 694.072C570.286 694.072 569.528 694.2 569.144 694.456C568.739 694.733 568.536 695.117 568.536 695.608V697.848H574.136ZM589.899 707.32C589.11 707.32 588.449 707.288 587.915 707.224C587.382 707.16 586.849 707.032 586.315 706.84C585.718 706.648 585.227 706.381 584.843 706.04C584.481 705.699 584.182 705.229 583.947 704.632C583.691 704.013 583.563 703.299 583.563 702.488V694.392H580.427V691.512H583.563V687.032H588.235V691.512H592.491V694.392H588.235V701.688C588.235 702.435 588.299 703 588.427 703.384C588.555 703.747 588.801 704.013 589.163 704.184C589.526 704.333 590.081 704.408 590.827 704.408C591.126 704.408 591.681 704.355 592.491 704.248V707.16C591.489 707.267 590.625 707.32 589.899 707.32ZM596.051 686.232H600.915L597.907 693.272H594.579L596.051 686.232ZM609.166 707.32C607.502 707.32 605.465 707.16 603.054 706.84V703.736C606.02 704.184 608.078 704.408 609.23 704.408C610.212 704.408 610.937 704.312 611.406 704.12C611.876 703.928 612.11 703.576 612.11 703.064V702.104C612.11 701.571 611.961 701.197 611.662 700.984C611.364 700.749 610.777 700.632 609.902 700.632H607.886C606.244 700.632 604.974 700.312 604.078 699.672C603.182 699.011 602.734 698.051 602.734 696.792V694.904C602.734 693.56 603.374 692.611 604.654 692.056C605.934 691.48 607.865 691.192 610.446 691.192C611.47 691.192 613.305 691.288 615.95 691.48V694.456C612.622 694.2 610.745 694.072 610.318 694.072C609.06 694.072 608.238 694.157 607.854 694.328C607.513 694.52 607.342 694.872 607.342 695.384V696.216C607.342 696.493 607.481 696.739 607.758 696.952C608.036 697.144 608.441 697.24 608.974 697.24H611.022C614.82 697.24 616.718 698.477 616.718 700.952V702.904C616.718 703.651 616.58 704.301 616.302 704.856C616.025 705.411 615.662 705.848 615.214 706.168C614.788 706.467 614.233 706.701 613.55 706.872C612.889 707.043 612.196 707.16 611.47 707.224C610.809 707.288 610.041 707.32 609.166 707.32ZM627.562 691.512H631.978V693.048C632.255 692.365 632.799 691.885 633.61 691.608C634.42 691.331 635.626 691.192 637.226 691.192C638.57 691.192 639.647 691.299 640.458 691.512C641.29 691.725 641.919 692.067 642.346 692.536C642.751 693.005 643.028 693.528 643.178 694.104C643.327 694.659 643.402 695.427 643.402 696.408V701.496C643.402 703.032 643.178 704.216 642.73 705.048C642.282 705.88 641.588 706.467 640.65 706.808C639.732 707.149 638.474 707.32 636.874 707.32C635.338 707.32 634.228 707.192 633.546 706.936C632.863 706.68 632.426 706.179 632.234 705.432V713.656H627.562V691.512ZM635.434 704.408C636.351 704.408 637.044 704.344 637.514 704.216C637.983 704.088 638.303 703.864 638.474 703.544C638.644 703.224 638.73 702.744 638.73 702.104V696.376C638.73 695.672 638.655 695.171 638.506 694.872C638.356 694.552 638.058 694.339 637.61 694.232C637.162 694.125 636.426 694.072 635.402 694.072C634.527 694.072 633.855 694.147 633.386 694.296C632.938 694.445 632.628 694.68 632.458 695C632.308 695.32 632.234 695.779 632.234 696.376V702.104C632.234 702.744 632.308 703.224 632.458 703.544C632.628 703.864 632.938 704.088 633.386 704.216C633.834 704.344 634.516 704.408 635.434 704.408ZM647.062 691.512H651.51V694.232C651.51 693.741 651.712 693.261 652.118 692.792C652.523 692.323 653.035 691.939 653.654 691.64C654.294 691.341 654.923 691.192 655.542 691.192H657.206V695.064H655.606C654.283 695.064 653.302 695.267 652.662 695.672C652.043 696.077 651.734 696.749 651.734 697.688V707H647.062V691.512ZM667.556 707.32C662.074 707.32 659.332 705.645 659.332 702.296V696.728C659.332 694.787 659.951 693.379 661.188 692.504C662.447 691.629 664.378 691.192 666.98 691.192C669.434 691.192 671.226 691.619 672.356 692.472C673.508 693.304 674.084 694.723 674.084 696.728V700.504H664.036V701.912C664.036 702.808 664.356 703.448 664.996 703.832C665.636 704.216 666.788 704.408 668.452 704.408C669.988 704.408 671.716 704.184 673.636 703.736V706.712C671.738 707.117 669.711 707.32 667.556 707.32ZM669.636 697.848V695.608C669.636 695.096 669.423 694.712 668.996 694.456C668.591 694.2 667.898 694.072 666.916 694.072C665.786 694.072 665.028 694.2 664.644 694.456C664.239 694.733 664.036 695.117 664.036 695.608V697.848H669.636ZM675.607 691.512H680.567L683.959 702.232L687.223 691.512H691.927L686.231 707H681.495L675.607 691.512ZM694.096 685.912H698.768V689.688H694.096V685.912ZM694.096 691.512H698.768V707H694.096V691.512ZM710.775 707.32C705.293 707.32 702.551 705.645 702.551 702.296V696.728C702.551 694.787 703.17 693.379 704.407 692.504C705.666 691.629 707.597 691.192 710.199 691.192C712.653 691.192 714.445 691.619 715.575 692.472C716.727 693.304 717.303 694.723 717.303 696.728V700.504H707.255V701.912C707.255 702.808 707.575 703.448 708.215 703.832C708.855 704.216 710.007 704.408 711.671 704.408C713.207 704.408 714.935 704.184 716.855 703.736V706.712C714.957 707.117 712.93 707.32 710.775 707.32ZM712.855 697.848V695.608C712.855 695.096 712.642 694.712 712.215 694.456C711.81 694.2 711.117 694.072 710.135 694.072C709.005 694.072 708.247 694.2 707.863 694.456C707.458 694.733 707.255 695.117 707.255 695.608V697.848H712.855ZM719.082 691.512H723.85L726.73 702.744L729.802 691.512H734.378L737.578 702.744L740.33 691.512H744.874L739.818 707H735.082L732.01 696.536L729.002 707H724.266L719.082 691.512ZM581.227 743.872L575.051 728.512H580.139L583.627 739.456L586.795 728.512H591.627L583.147 750.656H578.411L581.227 743.872ZM601.361 744.32C600.401 744.32 599.611 744.288 598.993 744.224C598.374 744.16 597.713 744.032 597.009 743.84C596.241 743.627 595.622 743.328 595.153 742.944C594.683 742.539 594.289 741.973 593.969 741.248C593.649 740.544 593.489 739.691 593.489 738.688V734.112C593.489 733.088 593.649 732.192 593.969 731.424C594.289 730.656 594.705 730.059 595.217 729.632C595.665 729.269 596.251 728.971 596.977 728.736C597.723 728.48 598.449 728.32 599.153 728.256C599.963 728.213 600.699 728.192 601.361 728.192C602.342 728.192 603.121 728.224 603.697 728.288C604.294 728.331 604.945 728.459 605.649 728.672C606.417 728.907 607.035 729.227 607.505 729.632C607.995 730.037 608.411 730.613 608.753 731.36C609.073 732.128 609.233 733.045 609.233 734.112V738.688C609.233 739.648 609.073 740.491 608.753 741.216C608.454 741.941 608.059 742.507 607.569 742.912C607.142 743.275 606.555 743.573 605.809 743.808C605.083 744.021 604.369 744.16 603.665 744.224C603.025 744.288 602.257 744.32 601.361 744.32ZM601.361 741.408C602.235 741.408 602.897 741.344 603.345 741.216C603.793 741.067 604.102 740.843 604.273 740.544C604.465 740.245 604.561 739.808 604.561 739.232V733.376C604.561 732.523 604.337 731.925 603.889 731.584C603.441 731.243 602.598 731.072 601.361 731.072C600.123 731.072 599.281 731.243 598.833 731.584C598.385 731.925 598.161 732.523 598.161 733.376V739.232C598.161 739.808 598.246 740.245 598.417 740.544C598.609 740.843 598.929 741.067 599.377 741.216C599.825 741.344 600.486 741.408 601.361 741.408ZM618.25 744.32C616.266 744.32 614.869 743.968 614.058 743.264C613.269 742.539 612.874 741.408 612.874 739.872V728.512H617.546V739.232C617.546 739.829 617.6 740.277 617.706 740.576C617.834 740.875 618.069 741.088 618.41 741.216C618.773 741.344 619.317 741.408 620.042 741.408C620.96 741.408 621.632 741.355 622.058 741.248C622.485 741.12 622.773 740.907 622.922 740.608C623.072 740.309 623.146 739.851 623.146 739.232V728.512H627.818V744H623.21V742.112C622.869 743.584 621.216 744.32 618.25 744.32ZM631.905 728.512H636.353V731.232C636.353 730.741 636.556 730.261 636.961 729.792C637.367 729.323 637.879 728.939 638.497 728.64C639.137 728.341 639.767 728.192 640.385 728.192H642.049V732.064H640.449C639.127 732.064 638.145 732.267 637.505 732.672C636.887 733.077 636.577 733.749 636.577 734.688V744H631.905V728.512ZM653.183 731.392H650.271V728.512H653.183V726.176C653.183 724.917 653.386 723.936 653.791 723.232C654.218 722.507 654.858 722.005 655.711 721.728C656.586 721.429 657.749 721.28 659.199 721.28C659.925 721.28 660.842 721.333 661.951 721.44V724.32C661.034 724.213 660.362 724.16 659.935 724.16C659.146 724.16 658.602 724.288 658.303 724.544C658.005 724.779 657.855 725.237 657.855 725.92V728.512H661.791V731.392H657.855V744H653.183V731.392ZM663.455 721.6H668.127V725.376H663.455V721.6ZM663.455 728.512H668.127V744H663.455V728.512ZM672.471 721.6H677.143V744H672.471V721.6ZM689.15 744.32C683.668 744.32 680.926 742.645 680.926 739.296V733.728C680.926 731.787 681.545 730.379 682.782 729.504C684.041 728.629 685.972 728.192 688.574 728.192C691.028 728.192 692.82 728.619 693.95 729.472C695.102 730.304 695.678 731.723 695.678 733.728V737.504H685.63V738.912C685.63 739.808 685.95 740.448 686.59 740.832C687.23 741.216 688.382 741.408 690.046 741.408C691.582 741.408 693.31 741.184 695.23 740.736V743.712C693.332 744.117 691.305 744.32 689.15 744.32ZM691.23 734.848V732.608C691.23 732.096 691.017 731.712 690.59 731.456C690.185 731.2 689.492 731.072 688.51 731.072C687.38 731.072 686.622 731.2 686.238 731.456C685.833 731.733 685.63 732.117 685.63 732.608V734.848H691.23ZM705.041 744.32C703.377 744.32 701.34 744.16 698.929 743.84V740.736C701.895 741.184 703.953 741.408 705.105 741.408C706.087 741.408 706.812 741.312 707.281 741.12C707.751 740.928 707.985 740.576 707.985 740.064V739.104C707.985 738.571 707.836 738.197 707.537 737.984C707.239 737.749 706.652 737.632 705.777 737.632H703.761C702.119 737.632 700.849 737.312 699.953 736.672C699.057 736.011 698.609 735.051 698.609 733.792V731.904C698.609 730.56 699.249 729.611 700.529 729.056C701.809 728.48 703.74 728.192 706.321 728.192C707.345 728.192 709.18 728.288 711.825 728.48V731.456C708.497 731.2 706.62 731.072 706.193 731.072C704.935 731.072 704.113 731.157 703.729 731.328C703.388 731.52 703.217 731.872 703.217 732.384V733.216C703.217 733.493 703.356 733.739 703.633 733.952C703.911 734.144 704.316 734.24 704.849 734.24H706.897C710.695 734.24 712.593 735.477 712.593 737.952V739.904C712.593 740.651 712.455 741.301 712.177 741.856C711.9 742.411 711.537 742.848 711.089 743.168C710.663 743.467 710.108 743.701 709.425 743.872C708.764 744.043 708.071 744.16 707.345 744.224C706.684 744.288 705.916 744.32 705.041 744.32Z" fill="url(#paint2_linear_0_1)"/>
<path d="M655.089 835.762C656.798 835.762 658.141 837.103 658.141 838.81C658.141 840.516 656.798 841.857 655.089 841.857C653.379 841.857 652.036 840.516 652.036 838.81C652.036 837.103 653.379 835.762 655.089 835.762ZM655.089 826.619C646.755 826.619 639.642 831.678 636.773 838.81C639.642 845.941 646.755 851 655.089 851C663.422 851 670.535 845.941 673.404 838.81C670.535 831.678 663.422 826.619 655.089 826.619ZM655.089 846.429C653.064 846.429 651.123 845.626 649.692 844.197C648.261 842.768 647.457 840.83 647.457 838.81C647.457 836.789 648.261 834.851 649.692 833.422C651.123 831.993 653.064 831.19 655.089 831.19C657.113 831.19 659.054 831.993 660.485 833.422C661.916 834.851 662.72 836.789 662.72 838.81C662.72 840.83 661.916 842.768 660.485 844.197C659.054 845.626 657.113 846.429 655.089 846.429ZM631.492 841.857H621.51V793.095H642.878V808.333H658.141V820.737C660.278 820.981 662.293 821.499 664.246 822.23V805.286L645.931 787H621.51C619.89 787 618.337 787.642 617.192 788.785C616.048 789.928 615.404 791.479 615.404 793.095V841.857C615.404 843.474 616.048 845.024 617.192 846.167C618.337 847.31 619.89 847.952 621.51 847.952H635.246C633.72 846.154 632.469 844.082 631.492 841.857Z" fill="url(#paint3_linear_0_1)"/>
<path fill-rule="evenodd" clip-rule="evenodd" d="M496.719 419.674C496.03 418.51 496.51 417.059 497.789 416.433L509.492 410.708L507.248 398.797C507.082 397.912 507.473 397.017 508.263 396.478C509.053 395.94 510.108 395.849 510.995 396.242L526.927 403.309C527.814 403.702 528.384 404.514 528.404 405.412C528.423 406.309 527.889 407.141 527.02 407.566L515.317 413.292L517.561 425.203C517.806 426.505 516.844 427.742 515.412 427.965C513.979 428.188 512.619 427.313 512.374 426.011L510.429 415.683L500.283 420.648C499.003 421.274 497.407 420.838 496.719 419.674ZM514.38 408.316L520.006 405.564L513.302 402.59L514.38 408.316Z" fill="url(#paint4_radial_0_1)"/>
<path d="M553.666 406.159H558.346C559.486 406.159 560.386 406.237 561.046 406.393C561.718 406.549 562.204 406.825 562.504 407.221C562.816 407.605 562.972 408.145 562.972 408.841V411.055C562.972 411.823 562.804 412.423 562.468 412.855C562.144 413.287 561.622 413.593 560.902 413.773C560.194 413.953 559.234 414.043 558.022 414.043H556.474V417.841H553.666V406.159ZM558.256 412.117C558.988 412.117 559.504 412.033 559.804 411.865C560.104 411.685 560.254 411.385 560.254 410.965V409.093C560.254 408.709 560.11 408.457 559.822 408.337C559.546 408.217 559.012 408.157 558.22 408.157H556.474V412.117H558.256Z" fill="url(#paint5_linear_0_1)"/>
<path d="M544.706 411.883L540.584 406.159H543.824L546.326 410.047L548.81 406.159H552.05L547.928 411.883L552.248 417.841H548.99L546.326 413.701L543.644 417.841H540.404L544.706 411.883Z" fill="url(#paint6_linear_0_1)"/>
</g>
<g clip-path="url(#clip1_0_1)">
<rect width="1440" height="1024" transform="translate(888.404 140)" fill="#1F1F1F"/>
<rect width="1440" height="1024" transform="translate(888.404 140)" fill="url(#paint7_linear_0_1)"/>
<path d="M1411.42 496.464H1421.4V530.896H1441.82V538H1411.42V496.464ZM1463.71 538.64C1452.74 538.64 1447.26 535.291 1447.26 528.592V517.456C1447.26 513.573 1448.5 510.757 1450.97 509.008C1453.49 507.259 1457.35 506.384 1462.56 506.384C1467.46 506.384 1471.05 507.237 1473.31 508.944C1475.61 510.608 1476.76 513.445 1476.76 517.456V525.008H1456.67V527.824C1456.67 529.616 1457.31 530.896 1458.59 531.664C1459.87 532.432 1462.17 532.816 1465.5 532.816C1468.57 532.816 1472.03 532.368 1475.87 531.472V537.424C1472.07 538.235 1468.02 538.64 1463.71 538.64ZM1467.87 519.696V515.216C1467.87 514.192 1467.44 513.424 1466.59 512.912C1465.78 512.4 1464.39 512.144 1462.43 512.144C1460.17 512.144 1458.65 512.4 1457.88 512.912C1457.07 513.467 1456.67 514.235 1456.67 515.216V519.696H1467.87ZM1499.39 538.64C1497.82 538.64 1496.49 538.576 1495.43 538.448C1494.36 538.32 1493.29 538.064 1492.23 537.68C1491.03 537.296 1490.05 536.763 1489.28 536.08C1488.56 535.397 1487.96 534.459 1487.49 533.264C1486.98 532.027 1486.72 530.597 1486.72 528.976V512.784H1480.45V507.024H1486.72V498.064H1496.07V507.024H1504.58V512.784H1496.07V527.376C1496.07 528.869 1496.19 530 1496.45 530.768C1496.71 531.493 1497.2 532.027 1497.92 532.368C1498.65 532.667 1499.76 532.816 1501.25 532.816C1501.85 532.816 1502.96 532.709 1504.58 532.496V538.32C1502.57 538.533 1500.85 538.64 1499.39 538.64ZM1511.7 496.464H1521.43L1515.41 510.544H1508.75L1511.7 496.464ZM1537.93 538.64C1534.6 538.64 1530.53 538.32 1525.7 537.68V531.472C1531.63 532.368 1535.75 532.816 1538.06 532.816C1540.02 532.816 1541.47 532.624 1542.41 532.24C1543.35 531.856 1543.82 531.152 1543.82 530.128V528.208C1543.82 527.141 1543.52 526.395 1542.92 525.968C1542.32 525.499 1541.15 525.264 1539.4 525.264H1535.37C1532.08 525.264 1529.54 524.624 1527.75 523.344C1525.96 522.021 1525.06 520.101 1525.06 517.584V513.808C1525.06 511.12 1526.34 509.221 1528.9 508.112C1531.46 506.96 1535.33 506.384 1540.49 506.384C1542.54 506.384 1546.21 506.576 1551.5 506.96V512.912C1544.84 512.4 1541.09 512.144 1540.23 512.144C1537.71 512.144 1536.07 512.315 1535.3 512.656C1534.62 513.04 1534.28 513.744 1534.28 514.768V516.432C1534.28 516.987 1534.56 517.477 1535.11 517.904C1535.67 518.288 1536.48 518.48 1537.54 518.48H1541.64C1549.23 518.48 1553.03 520.955 1553.03 525.904V529.808C1553.03 531.301 1552.75 532.603 1552.2 533.712C1551.65 534.821 1550.92 535.696 1550.02 536.336C1549.17 536.933 1548.06 537.403 1546.7 537.744C1545.37 538.085 1543.99 538.32 1542.54 538.448C1541.21 538.576 1539.68 538.64 1537.93 538.64ZM1574.72 507.024H1583.55V510.096C1584.11 508.731 1585.19 507.771 1586.82 507.216C1588.44 506.661 1590.85 506.384 1594.05 506.384C1596.74 506.384 1598.89 506.597 1600.51 507.024C1602.18 507.451 1603.43 508.133 1604.29 509.072C1605.1 510.011 1605.65 511.056 1605.95 512.208C1606.25 513.317 1606.4 514.853 1606.4 516.816V526.992C1606.4 530.064 1605.95 532.432 1605.06 534.096C1604.16 535.76 1602.77 536.933 1600.9 537.616C1599.06 538.299 1596.54 538.64 1593.34 538.64C1590.27 538.64 1588.05 538.384 1586.69 537.872C1585.32 537.36 1584.45 536.357 1584.06 534.864V551.312H1574.72V507.024ZM1590.46 532.816C1592.3 532.816 1593.68 532.688 1594.62 532.432C1595.56 532.176 1596.2 531.728 1596.54 531.088C1596.88 530.448 1597.06 529.488 1597.06 528.208V516.752C1597.06 515.344 1596.91 514.341 1596.61 513.744C1596.31 513.104 1595.71 512.677 1594.82 512.464C1593.92 512.251 1592.45 512.144 1590.4 512.144C1588.65 512.144 1587.31 512.293 1586.37 512.592C1585.47 512.891 1584.85 513.36 1584.51 514C1584.21 514.64 1584.06 515.557 1584.06 516.752V528.208C1584.06 529.488 1584.21 530.448 1584.51 531.088C1584.85 531.728 1585.47 532.176 1586.37 532.432C1587.26 532.688 1588.63 532.816 1590.46 532.816ZM1613.72 507.024H1622.62V512.464C1622.62 511.483 1623.02 510.523 1623.83 509.584C1624.64 508.645 1625.67 507.877 1626.9 507.28C1628.18 506.683 1629.44 506.384 1630.68 506.384H1634.01V514.128H1630.81C1628.16 514.128 1626.2 514.533 1624.92 515.344C1623.68 516.155 1623.06 517.499 1623.06 519.376V538H1613.72V507.024ZM1654.71 538.64C1643.74 538.64 1638.26 535.291 1638.26 528.592V517.456C1638.26 513.573 1639.5 510.757 1641.97 509.008C1644.49 507.259 1648.35 506.384 1653.56 506.384C1658.46 506.384 1662.05 507.237 1664.31 508.944C1666.61 510.608 1667.76 513.445 1667.76 517.456V525.008H1647.67V527.824C1647.67 529.616 1648.31 530.896 1649.59 531.664C1650.87 532.432 1653.17 532.816 1656.5 532.816C1659.57 532.816 1663.03 532.368 1666.87 531.472V537.424C1663.07 538.235 1659.02 538.64 1654.71 538.64ZM1658.87 519.696V515.216C1658.87 514.192 1658.44 513.424 1657.59 512.912C1656.78 512.4 1655.39 512.144 1653.43 512.144C1651.17 512.144 1649.65 512.4 1648.88 512.912C1648.07 513.467 1647.67 514.235 1647.67 515.216V519.696H1658.87ZM1670.81 507.024H1680.73L1687.51 528.464L1694.04 507.024H1703.45L1692.06 538H1682.59L1670.81 507.024ZM1707.79 495.824H1717.13V503.376H1707.79V495.824ZM1707.79 507.024H1717.13V538H1707.79V507.024ZM1741.15 538.64C1730.18 538.64 1724.7 535.291 1724.7 528.592V517.456C1724.7 513.573 1725.94 510.757 1728.41 509.008C1730.93 507.259 1734.79 506.384 1739.99 506.384C1744.9 506.384 1748.48 507.237 1750.75 508.944C1753.05 510.608 1754.2 513.445 1754.2 517.456V525.008H1734.11V527.824C1734.11 529.616 1734.75 530.896 1736.03 531.664C1737.31 532.432 1739.61 532.816 1742.94 532.816C1746.01 532.816 1749.47 532.368 1753.31 531.472V537.424C1749.51 538.235 1745.46 538.64 1741.15 538.64ZM1745.31 519.696V515.216C1745.31 514.192 1744.88 513.424 1744.03 512.912C1743.22 512.4 1741.83 512.144 1739.87 512.144C1737.6 512.144 1736.09 512.4 1735.32 512.912C1734.51 513.467 1734.11 514.235 1734.11 515.216V519.696H1745.31ZM1757.76 507.024H1767.3L1773.06 529.488L1779.2 507.024H1788.35L1794.75 529.488L1800.26 507.024H1809.34L1799.23 538H1789.76L1783.62 517.072L1777.6 538H1768.13L1757.76 507.024ZM1342.71 611.744L1330.35 581.024H1340.53L1347.51 602.912L1353.84 581.024H1363.51L1346.55 625.312H1337.07L1342.71 611.744ZM1382.97 612.64C1381.05 612.64 1379.47 612.576 1378.24 612.448C1377 612.32 1375.68 612.064 1374.27 611.68C1372.73 611.253 1371.5 610.656 1370.56 609.888C1369.62 609.077 1368.83 607.947 1368.19 606.496C1367.55 605.088 1367.23 603.381 1367.23 601.376V592.224C1367.23 590.176 1367.55 588.384 1368.19 586.848C1368.83 585.312 1369.66 584.117 1370.69 583.264C1371.58 582.539 1372.75 581.941 1374.21 581.472C1375.7 580.96 1377.15 580.64 1378.56 580.512C1380.18 580.427 1381.65 580.384 1382.97 580.384C1384.94 580.384 1386.49 580.448 1387.65 580.576C1388.84 580.661 1390.14 580.917 1391.55 581.344C1393.09 581.813 1394.32 582.453 1395.26 583.264C1396.24 584.075 1397.07 585.227 1397.76 586.72C1398.4 588.256 1398.72 590.091 1398.72 592.224V601.376C1398.72 603.296 1398.4 604.981 1397.76 606.432C1397.16 607.883 1396.37 609.013 1395.39 609.824C1394.54 610.549 1393.36 611.147 1391.87 611.616C1390.42 612.043 1388.99 612.32 1387.58 612.448C1386.3 612.576 1384.77 612.64 1382.97 612.64ZM1382.97 606.816C1384.72 606.816 1386.05 606.688 1386.94 606.432C1387.84 606.133 1388.46 605.685 1388.8 605.088C1389.18 604.491 1389.37 603.616 1389.37 602.464V590.752C1389.37 589.045 1388.93 587.851 1388.03 587.168C1387.13 586.485 1385.45 586.144 1382.97 586.144C1380.5 586.144 1378.81 586.485 1377.92 587.168C1377.02 587.851 1376.57 589.045 1376.57 590.752V602.464C1376.57 603.616 1376.74 604.491 1377.09 605.088C1377.47 605.685 1378.11 606.133 1379.01 606.432C1379.9 606.688 1381.22 606.816 1382.97 606.816ZM1416.75 612.64C1412.78 612.64 1409.99 611.936 1408.37 610.528C1406.79 609.077 1406 606.816 1406 603.744V581.024H1415.34V602.464C1415.34 603.659 1415.45 604.555 1415.66 605.152C1415.92 605.749 1416.39 606.176 1417.07 606.432C1417.8 606.688 1418.89 606.816 1420.34 606.816C1422.17 606.816 1423.51 606.709 1424.37 606.496C1425.22 606.24 1425.8 605.813 1426.1 605.216C1426.39 604.619 1426.54 603.701 1426.54 602.464V581.024H1435.89V612H1426.67V608.224C1425.99 611.168 1422.68 612.64 1416.75 612.64ZM1444.06 581.024H1452.96V586.464C1452.96 585.483 1453.36 584.523 1454.17 583.584C1454.99 582.645 1456.01 581.877 1457.25 581.28C1458.53 580.683 1459.79 580.384 1461.02 580.384H1464.35V588.128H1461.15C1458.51 588.128 1456.54 588.533 1455.26 589.344C1454.03 590.155 1453.41 591.499 1453.41 593.376V612H1444.06V581.024ZM1486.62 586.784H1480.79V581.024H1486.62V576.352C1486.62 573.835 1487.02 571.872 1487.83 570.464C1488.69 569.013 1489.97 568.011 1491.67 567.456C1493.42 566.859 1495.75 566.56 1498.65 566.56C1500.1 566.56 1501.94 566.667 1504.15 566.88V572.64C1502.32 572.427 1500.98 572.32 1500.12 572.32C1498.54 572.32 1497.46 572.576 1496.86 573.088C1496.26 573.557 1495.96 574.475 1495.96 575.84V581.024H1503.83V586.784H1495.96V612H1486.62V586.784ZM1507.16 567.2H1516.51V574.752H1507.16V567.2ZM1507.16 581.024H1516.51V612H1507.16V581.024ZM1525.19 567.2H1534.54V612H1525.19V567.2ZM1558.55 612.64C1547.59 612.64 1542.1 609.291 1542.1 602.592V591.456C1542.1 587.573 1543.34 584.757 1545.82 583.008C1548.33 581.259 1552.19 580.384 1557.4 580.384C1562.31 580.384 1565.89 581.237 1568.15 582.944C1570.46 584.608 1571.61 587.445 1571.61 591.456V599.008H1551.51V601.824C1551.51 603.616 1552.15 604.896 1553.43 605.664C1554.71 606.432 1557.02 606.816 1560.34 606.816C1563.42 606.816 1566.87 606.368 1570.71 605.472V611.424C1566.91 612.235 1562.86 612.64 1558.55 612.64ZM1562.71 593.696V589.216C1562.71 588.192 1562.29 587.424 1561.43 586.912C1560.62 586.4 1559.23 586.144 1557.27 586.144C1555.01 586.144 1553.5 586.4 1552.73 586.912C1551.92 587.467 1551.51 588.235 1551.51 589.216V593.696H1562.71ZM1590.33 612.64C1587.01 612.64 1582.93 612.32 1578.11 611.68V605.472C1584.04 606.368 1588.16 606.816 1590.46 606.816C1592.42 606.816 1593.88 606.624 1594.81 606.24C1595.75 605.856 1596.22 605.152 1596.22 604.128V602.208C1596.22 601.141 1595.92 600.395 1595.33 599.968C1594.73 599.499 1593.56 599.264 1591.81 599.264H1587.77C1584.49 599.264 1581.95 598.624 1580.16 597.344C1578.37 596.021 1577.47 594.101 1577.47 591.584V587.808C1577.47 585.12 1578.75 583.221 1581.31 582.112C1583.87 580.96 1587.73 580.384 1592.89 580.384C1594.94 580.384 1598.61 580.576 1603.9 580.96V586.912C1597.25 586.4 1593.49 586.144 1592.64 586.144C1590.12 586.144 1588.48 586.315 1587.71 586.656C1587.03 587.04 1586.69 587.744 1586.69 588.768V590.432C1586.69 590.987 1586.96 591.477 1587.52 591.904C1588.07 592.288 1588.88 592.48 1589.95 592.48H1594.05C1601.64 592.48 1605.44 594.955 1605.44 599.904V603.808C1605.44 605.301 1605.16 606.603 1604.61 607.712C1604.05 608.821 1603.33 609.696 1602.43 610.336C1601.58 610.933 1600.47 611.403 1599.1 611.744C1597.78 612.085 1596.39 612.32 1594.94 612.448C1593.62 612.576 1592.08 612.64 1590.33 612.64ZM1642.61 612.64C1641.03 612.64 1639.71 612.576 1638.65 612.448C1637.58 612.32 1636.51 612.064 1635.45 611.68C1634.25 611.296 1633.27 610.763 1632.5 610.08C1631.78 609.397 1631.18 608.459 1630.71 607.264C1630.2 606.027 1629.94 604.597 1629.94 602.976V586.784H1623.67V581.024H1629.94V572.064H1639.29V581.024H1647.8V586.784H1639.29V601.376C1639.29 602.869 1639.41 604 1639.67 604.768C1639.93 605.493 1640.42 606.027 1641.14 606.368C1641.87 606.667 1642.98 606.816 1644.47 606.816C1645.07 606.816 1646.18 606.709 1647.8 606.496V612.32C1645.79 612.533 1644.06 612.64 1642.61 612.64ZM1668.04 612.64C1666.12 612.64 1664.54 612.576 1663.3 612.448C1662.06 612.32 1660.74 612.064 1659.33 611.68C1657.8 611.253 1656.56 610.656 1655.62 609.888C1654.68 609.077 1653.89 607.947 1653.25 606.496C1652.61 605.088 1652.29 603.381 1652.29 601.376V592.224C1652.29 590.176 1652.61 588.384 1653.25 586.848C1653.89 585.312 1654.72 584.117 1655.75 583.264C1656.64 582.539 1657.82 581.941 1659.27 581.472C1660.76 580.96 1662.21 580.64 1663.62 580.512C1665.24 580.427 1666.71 580.384 1668.04 580.384C1670 580.384 1671.56 580.448 1672.71 580.576C1673.9 580.661 1675.2 580.917 1676.61 581.344C1678.15 581.813 1679.39 582.453 1680.32 583.264C1681.31 584.075 1682.14 585.227 1682.82 586.72C1683.46 588.256 1683.78 590.091 1683.78 592.224V601.376C1683.78 603.296 1683.46 604.981 1682.82 606.432C1682.22 607.883 1681.43 609.013 1680.45 609.824C1679.6 610.549 1678.43 611.147 1676.93 611.616C1675.48 612.043 1674.05 612.32 1672.64 612.448C1671.36 612.576 1669.83 612.64 1668.04 612.64ZM1668.04 606.816C1669.79 606.816 1671.11 606.688 1672 606.432C1672.9 606.133 1673.52 605.685 1673.86 605.088C1674.24 604.491 1674.44 603.616 1674.44 602.464V590.752C1674.44 589.045 1673.99 587.851 1673.09 587.168C1672.2 586.485 1670.51 586.144 1668.04 586.144C1665.56 586.144 1663.88 586.485 1662.98 587.168C1662.08 587.851 1661.64 589.045 1661.64 590.752V602.464C1661.64 603.616 1661.81 604.491 1662.15 605.088C1662.53 605.685 1663.17 606.133 1664.07 606.432C1664.96 606.688 1666.29 606.816 1668.04 606.816ZM1703.61 626.08C1698.57 626.08 1694.84 625.931 1692.41 625.632V619.36C1696.42 619.915 1700.15 620.192 1703.61 620.192C1706.76 620.192 1709.03 619.68 1710.39 618.656C1711.76 617.632 1712.44 615.925 1712.44 613.536V608.544C1711.67 609.653 1710.92 610.507 1710.2 611.104C1709.47 611.659 1708.51 612.043 1707.32 612.256C1706.17 612.512 1704.57 612.64 1702.52 612.64C1699.49 612.64 1697.08 612.363 1695.29 611.808C1693.49 611.211 1692.19 610.251 1691.38 608.928C1690.57 607.563 1690.17 605.685 1690.17 603.296V591.2C1690.17 588.341 1690.53 586.144 1691.25 584.608C1692.02 583.072 1693.3 581.984 1695.09 581.344C1696.93 580.704 1699.55 580.384 1702.97 580.384C1705.19 580.384 1706.89 580.512 1708.09 580.768C1709.24 581.024 1710.11 581.408 1710.71 581.92C1711.31 582.432 1711.99 583.307 1712.76 584.544V581.024H1721.78V613.664C1721.78 618.059 1720.27 621.216 1717.24 623.136C1714.25 625.099 1709.71 626.08 1703.61 626.08ZM1705.85 606.816C1707.68 606.816 1709.05 606.688 1709.94 606.432C1710.88 606.176 1711.52 605.771 1711.86 605.216C1712.25 604.619 1712.44 603.787 1712.44 602.72V590.24C1712.44 589.088 1712.27 588.235 1711.93 587.68C1711.59 587.083 1710.92 586.677 1709.94 586.464C1708.96 586.251 1707.43 586.144 1705.33 586.144C1703.63 586.144 1702.37 586.272 1701.56 586.528C1700.75 586.784 1700.19 587.232 1699.89 587.872C1699.64 588.469 1699.51 589.365 1699.51 590.56V602.4C1699.51 603.723 1699.64 604.683 1699.89 605.28C1700.19 605.835 1700.77 606.24 1701.62 606.496C1702.48 606.709 1703.88 606.816 1705.85 606.816ZM1745.55 612.64C1734.59 612.64 1729.1 609.291 1729.1 602.592V591.456C1729.1 587.573 1730.34 584.757 1732.82 583.008C1735.33 581.259 1739.19 580.384 1744.4 580.384C1749.31 580.384 1752.89 581.237 1755.15 582.944C1757.46 584.608 1758.61 587.445 1758.61 591.456V599.008H1738.51V601.824C1738.51 603.616 1739.15 604.896 1740.43 605.664C1741.71 606.432 1744.02 606.816 1747.34 606.816C1750.42 606.816 1753.87 606.368 1757.71 605.472V611.424C1753.91 612.235 1749.86 612.64 1745.55 612.64ZM1749.71 593.696V589.216C1749.71 588.192 1749.29 587.424 1748.43 586.912C1747.62 586.4 1746.23 586.144 1744.27 586.144C1742.01 586.144 1740.5 586.4 1739.73 586.912C1738.92 587.467 1738.51 588.235 1738.51 589.216V593.696H1749.71ZM1781.24 612.64C1779.66 612.64 1778.34 612.576 1777.27 612.448C1776.2 612.32 1775.14 612.064 1774.07 611.68C1772.88 611.296 1771.89 610.763 1771.13 610.08C1770.4 609.397 1769.8 608.459 1769.33 607.264C1768.82 606.027 1768.57 604.597 1768.57 602.976V586.784H1762.29V581.024H1768.57V572.064H1777.91V581.024H1786.42V586.784H1777.91V601.376C1777.91 602.869 1778.04 604 1778.29 604.768C1778.55 605.493 1779.04 606.027 1779.77 606.368C1780.49 606.667 1781.6 606.816 1783.09 606.816C1783.69 606.816 1784.8 606.709 1786.42 606.496V612.32C1784.42 612.533 1782.69 612.64 1781.24 612.64ZM1791.81 567.2H1801.16V584.8C1801.75 581.856 1805.02 580.384 1810.95 580.384C1814.92 580.384 1817.69 581.109 1819.27 582.56C1820.89 583.968 1821.7 586.208 1821.7 589.28V612H1812.36V590.368C1812.36 589.173 1812.23 588.299 1811.97 587.744C1811.76 587.147 1811.31 586.741 1810.63 586.528C1809.95 586.272 1808.86 586.144 1807.36 586.144C1805.53 586.144 1804.19 586.251 1803.33 586.464C1802.48 586.677 1801.9 587.083 1801.6 587.68C1801.31 588.235 1801.16 589.131 1801.16 590.368V612H1791.81V567.2ZM1845.43 612.64C1834.46 612.64 1828.98 609.291 1828.98 602.592V591.456C1828.98 587.573 1830.22 584.757 1832.69 583.008C1835.21 581.259 1839.07 580.384 1844.28 580.384C1849.18 580.384 1852.77 581.237 1855.03 582.944C1857.33 584.608 1858.48 587.445 1858.48 591.456V599.008H1838.39V601.824C1838.39 603.616 1839.03 604.896 1840.31 605.664C1841.59 606.432 1843.89 606.816 1847.22 606.816C1850.29 606.816 1853.75 606.368 1857.59 605.472V611.424C1853.79 612.235 1849.74 612.64 1845.43 612.64ZM1849.59 593.696V589.216C1849.59 588.192 1849.16 587.424 1848.31 586.912C1847.5 586.4 1846.11 586.144 1844.15 586.144C1841.89 586.144 1840.37 586.4 1839.6 586.912C1838.79 587.467 1838.39 588.235 1838.39 589.216V593.696H1849.59ZM1865.63 581.024H1874.52V586.464C1874.52 585.483 1874.93 584.523 1875.74 583.584C1876.55 582.645 1877.57 581.877 1878.81 581.28C1880.09 580.683 1881.35 580.384 1882.59 580.384H1885.91V588.128H1882.71C1880.07 588.128 1878.11 588.533 1876.83 589.344C1875.59 590.155 1874.97 591.499 1874.97 593.376V612H1865.63V581.024Z" fill="url(#paint8_linear_0_1)"/>
<path d="M1629.77 795.524C1633.19 795.524 1635.88 798.206 1635.88 801.619C1635.88 805.032 1633.19 807.714 1629.77 807.714C1626.35 807.714 1623.67 805.032 1623.67 801.619C1623.67 798.206 1626.35 795.524 1629.77 795.524ZM1629.77 777.238C1613.11 777.238 1598.88 787.356 1593.14 801.619C1598.88 815.882 1613.11 826 1629.77 826C1646.44 826 1660.67 815.882 1666.4 801.619C1660.67 787.356 1646.44 777.238 1629.77 777.238ZM1629.77 816.857C1625.72 816.857 1621.84 815.252 1618.98 812.394C1616.12 809.536 1614.51 805.66 1614.51 801.619C1614.51 797.578 1616.12 793.702 1618.98 790.844C1621.84 787.986 1625.72 786.381 1629.77 786.381C1633.82 786.381 1637.7 787.986 1640.57 790.844C1643.43 793.702 1645.04 797.578 1645.04 801.619C1645.04 805.66 1643.43 809.536 1640.57 812.394C1637.7 815.252 1633.82 816.857 1629.77 816.857ZM1582.58 807.714H1562.61V710.19H1605.35V740.667H1635.88V765.474C1640.15 765.962 1644.18 766.998 1648.09 768.461V734.571L1611.46 698H1562.61C1559.38 698 1556.27 699.284 1553.98 701.571C1551.69 703.857 1550.4 706.957 1550.4 710.19V807.714C1550.4 810.947 1551.69 814.048 1553.98 816.334C1556.27 818.62 1559.38 819.905 1562.61 819.905H1590.09C1587.04 816.309 1584.53 812.164 1582.58 807.714Z" fill="url(#paint9_linear_0_1)"/>
<path fill-rule="evenodd" clip-rule="evenodd" d="M920.629 219.348C919.252 217.021 920.211 214.119 922.77 212.867L946.175 201.416L941.688 177.594C941.355 175.824 942.138 174.034 943.718 172.957C945.297 171.88 947.407 171.697 949.181 172.484L981.045 186.617C982.819 187.404 983.96 189.028 983.999 190.823C984.038 192.618 982.969 194.282 981.231 195.133L957.826 206.584L962.313 230.406C962.804 233.011 960.879 235.484 958.015 235.931C955.15 236.377 952.43 234.627 951.94 232.022L948.049 211.367L927.756 221.295C925.197 222.547 922.006 221.676 920.629 219.348ZM955.952 196.632L967.204 191.127L953.794 185.179L955.952 196.632Z" fill="url(#paint10_radial_0_1)"/>
<path d="M1031.58 193.616H1039.9C1041.92 193.616 1043.52 193.755 1044.7 194.032C1045.89 194.309 1046.75 194.8 1047.29 195.504C1047.84 196.187 1048.12 197.147 1048.12 198.384V202.32C1048.12 203.685 1047.82 204.752 1047.22 205.52C1046.65 206.288 1045.72 206.832 1044.44 207.152C1043.18 207.472 1041.47 207.632 1039.32 207.632H1036.57V214.384H1031.58V193.616ZM1039.74 204.208C1041.04 204.208 1041.95 204.059 1042.49 203.76C1043.02 203.44 1043.29 202.907 1043.29 202.16V198.832C1043.29 198.149 1043.03 197.701 1042.52 197.488C1042.03 197.275 1041.08 197.168 1039.67 197.168H1036.57V204.208H1039.74Z" fill="url(#paint11_linear_0_1)"/>
<path d="M1015.65 203.792L1008.32 193.616H1014.08L1018.53 200.528L1022.94 193.616H1028.7L1021.38 203.792L1029.06 214.384H1023.26L1018.53 207.024L1013.76 214.384H1008L1015.65 203.792Z" fill="url(#paint12_linear_0_1)"/>
<path d="M2057 189C2055.36 189 2054 190.359 2054 192V216C2054 217.641 2055.36 219 2057 219H2075C2076.64 219 2078 217.641 2078 216V198L2069 189H2057ZM2057 192H2067.5V199.5H2075V216H2057V192ZM2060 204V207H2072V204H2060ZM2060 210V213H2072V210H2060Z" fill="#998FA3"/>
<path d="M2100.52 204.092H2106.78V212.804C2105.94 213.108 2105.03 213.34 2104.07 213.5C2103.13 213.66 2102.09 213.74 2100.95 213.74C2099.34 213.74 2097.95 213.396 2096.8 212.708C2095.66 212.02 2094.79 211.02 2094.18 209.708C2093.58 208.396 2093.27 206.796 2093.27 204.908C2093.27 203.116 2093.6 201.564 2094.26 200.252C2094.91 198.94 2095.86 197.924 2097.11 197.204C2098.36 196.484 2099.89 196.124 2101.7 196.124C2102.61 196.124 2103.48 196.22 2104.31 196.412C2105.16 196.588 2105.93 196.836 2106.62 197.156L2105.54 199.676C2104.98 199.404 2104.37 199.18 2103.71 199.004C2103.07 198.812 2102.38 198.716 2101.65 198.716C2100.56 198.716 2099.64 198.972 2098.89 199.484C2098.15 199.996 2097.58 200.724 2097.18 201.668C2096.8 202.596 2096.61 203.692 2096.61 204.956C2096.61 206.172 2096.78 207.252 2097.11 208.196C2097.45 209.124 2097.95 209.852 2098.62 210.38C2099.31 210.892 2100.2 211.148 2101.29 211.148C2101.62 211.148 2101.94 211.132 2102.22 211.1C2102.51 211.068 2102.78 211.028 2103.02 210.98C2103.27 210.932 2103.5 210.884 2103.69 210.836V206.708H2100.52V204.092ZM2121.32 200.492V213.5H2118.87L2118.46 211.82H2118.29C2118.04 212.268 2117.71 212.636 2117.31 212.924C2116.91 213.196 2116.47 213.396 2115.99 213.524C2115.51 213.668 2115.01 213.74 2114.5 213.74C2113.61 213.74 2112.83 213.572 2112.17 213.236C2111.52 212.9 2111.01 212.388 2110.64 211.7C2110.29 210.996 2110.11 210.092 2110.11 208.988V200.492H2113.3V208.388C2113.3 209.348 2113.46 210.076 2113.78 210.572C2114.12 211.052 2114.65 211.292 2115.37 211.292C2116.09 211.292 2116.65 211.124 2117.05 210.788C2117.46 210.436 2117.75 209.932 2117.91 209.276C2118.07 208.62 2118.15 207.812 2118.15 206.852V200.492H2121.32ZM2128 200.492V213.5H2124.83V200.492H2128ZM2126.44 195.476C2126.9 195.476 2127.3 195.596 2127.64 195.836C2127.97 196.06 2128.14 196.468 2128.14 197.06C2128.14 197.636 2127.97 198.052 2127.64 198.308C2127.3 198.548 2126.9 198.668 2126.44 198.668C2125.94 198.668 2125.53 198.548 2125.19 198.308C2124.85 198.052 2124.69 197.636 2124.69 197.06C2124.69 196.468 2124.85 196.06 2125.19 195.836C2125.53 195.596 2125.94 195.476 2126.44 195.476ZM2135.49 213.74C2134.1 213.74 2132.97 213.18 2132.11 212.06C2131.25 210.924 2130.81 209.244 2130.81 207.02C2130.81 204.796 2131.25 203.116 2132.13 201.98C2133.01 200.828 2134.17 200.252 2135.59 200.252C2136.18 200.252 2136.69 200.34 2137.13 200.516C2137.57 200.676 2137.96 200.9 2138.28 201.188C2138.6 201.476 2138.88 201.796 2139.12 202.148H2139.21C2139.18 201.924 2139.14 201.58 2139.09 201.116C2139.05 200.652 2139.02 200.22 2139.02 199.82V195.26H2142.21V213.5H2139.77L2139.17 211.796H2139.02C2138.81 212.148 2138.55 212.476 2138.23 212.78C2137.91 213.068 2137.53 213.3 2137.08 213.476C2136.63 213.652 2136.1 213.74 2135.49 213.74ZM2136.55 211.292C2137.53 211.292 2138.21 210.972 2138.61 210.332C2139.01 209.692 2139.21 208.724 2139.21 207.428V207.044C2139.21 205.636 2139.02 204.564 2138.64 203.828C2138.25 203.092 2137.55 202.724 2136.53 202.724C2135.73 202.724 2135.11 203.108 2134.68 203.876C2134.26 204.628 2134.05 205.692 2134.05 207.068C2134.05 208.444 2134.27 209.492 2134.7 210.212C2135.13 210.932 2135.75 211.292 2136.55 211.292ZM2150.78 200.252C2151.9 200.252 2152.86 200.492 2153.66 200.972C2154.47 201.436 2155.11 202.108 2155.55 202.988C2156 203.852 2156.23 204.908 2156.23 206.156V207.692H2148.26C2148.29 208.876 2148.58 209.796 2149.12 210.452C2149.68 211.092 2150.47 211.412 2151.47 211.412C2152.27 211.412 2152.99 211.332 2153.61 211.172C2154.23 210.996 2154.88 210.748 2155.55 210.428V212.852C2154.95 213.156 2154.31 213.38 2153.66 213.524C2153 213.668 2152.19 213.74 2151.23 213.74C2150.02 213.74 2148.94 213.5 2147.99 213.02C2147.07 212.524 2146.34 211.78 2145.81 210.788C2145.28 209.796 2145.02 208.564 2145.02 207.092C2145.02 205.604 2145.26 204.356 2145.74 203.348C2146.22 202.324 2146.89 201.556 2147.75 201.044C2148.63 200.516 2149.64 200.252 2150.78 200.252ZM2150.83 202.484C2150.11 202.484 2149.52 202.748 2149.07 203.276C2148.64 203.788 2148.39 204.556 2148.31 205.58H2153.2C2153.2 204.972 2153.11 204.436 2152.94 203.972C2152.76 203.508 2152.5 203.148 2152.15 202.892C2151.81 202.62 2151.37 202.484 2150.83 202.484Z" fill="#998FA3"/>
<path d="M2208 189C2199.73 189 2193 195.733 2193 204C2193 212.267 2199.73 219 2208 219C2216.27 219 2223 212.267 2223 204C2223 195.733 2216.27 189 2208 189ZM2208 192C2214.65 192 2220 197.355 2220 204C2220 210.645 2214.65 216 2208 216C2201.35 216 2196 210.645 2196 204C2196 197.355 2201.35 192 2208 192ZM2206.5 196.5V199.5H2209.5V196.5H2206.5ZM2206.5 202.5V211.5H2209.5V202.5H2206.5Z" fill="#998FA3"/>
<path d="M2241.92 213.5H2234.79V211.748L2236.76 210.98V198.908L2234.79 198.116V196.364H2241.92V198.116L2239.98 198.908V210.98L2241.92 211.748V213.5ZM2251.31 200.252C2252.67 200.252 2253.74 200.628 2254.53 201.38C2255.31 202.132 2255.7 203.348 2255.7 205.028V213.5H2252.51V205.628C2252.51 204.652 2252.34 203.924 2252.01 203.444C2251.67 202.948 2251.14 202.7 2250.42 202.7C2249.35 202.7 2248.62 203.084 2248.24 203.852C2247.85 204.604 2247.66 205.7 2247.66 207.14V213.5H2244.47V200.492H2246.92L2247.37 202.196H2247.49C2247.78 201.748 2248.12 201.38 2248.5 201.092C2248.89 200.804 2249.32 200.596 2249.8 200.468C2250.28 200.324 2250.78 200.252 2251.31 200.252ZM2265.74 202.772H2262.86V213.5H2259.67V202.772H2257.8V201.332L2259.7 200.468V199.58C2259.7 198.46 2259.86 197.58 2260.18 196.94C2260.5 196.3 2260.97 195.844 2261.59 195.572C2262.22 195.284 2262.98 195.14 2263.87 195.14C2264.46 195.14 2265 195.196 2265.48 195.308C2265.98 195.404 2266.42 195.516 2266.8 195.644L2266.03 197.9C2265.79 197.82 2265.52 197.748 2265.22 197.684C2264.93 197.604 2264.62 197.564 2264.3 197.564C2263.81 197.564 2263.44 197.748 2263.2 198.116C2262.98 198.484 2262.86 198.996 2262.86 199.652V200.492H2265.74V202.772ZM2278.86 206.972C2278.86 208.06 2278.72 209.02 2278.45 209.852C2278.18 210.684 2277.78 211.396 2277.25 211.988C2276.74 212.564 2276.11 213.004 2275.38 213.308C2274.64 213.596 2273.82 213.74 2272.91 213.74C2272.06 213.74 2271.27 213.596 2270.53 213.308C2269.81 213.004 2269.19 212.564 2268.66 211.988C2268.15 211.396 2267.75 210.684 2267.46 209.852C2267.17 209.02 2267.03 208.06 2267.03 206.972C2267.03 205.532 2267.26 204.316 2267.72 203.324C2268.2 202.316 2268.89 201.556 2269.79 201.044C2270.68 200.516 2271.75 200.252 2272.98 200.252C2274.13 200.252 2275.15 200.516 2276.03 201.044C2276.91 201.556 2277.59 202.316 2278.09 203.324C2278.6 204.316 2278.86 205.532 2278.86 206.972ZM2270.27 206.972C2270.27 207.884 2270.36 208.668 2270.55 209.324C2270.75 209.964 2271.03 210.452 2271.42 210.788C2271.82 211.124 2272.33 211.292 2272.95 211.292C2273.58 211.292 2274.08 211.124 2274.47 210.788C2274.87 210.452 2275.15 209.964 2275.33 209.324C2275.52 208.668 2275.62 207.884 2275.62 206.972C2275.62 206.044 2275.52 205.268 2275.33 204.644C2275.14 204.004 2274.84 203.524 2274.44 203.204C2274.06 202.868 2273.55 202.7 2272.93 202.7C2271.99 202.7 2271.31 203.068 2270.89 203.804C2270.47 204.54 2270.27 205.596 2270.27 206.972Z" fill="#998FA3"/>
</g>
<path fill-rule="evenodd" clip-rule="evenodd" d="M164.629 1123.35C163.252 1121.02 164.211 1118.12 166.77 1116.87L190.175 1105.42L185.688 1081.59C185.355 1079.82 186.138 1078.03 187.718 1076.96C189.297 1075.88 191.407 1075.7 193.181 1076.48L225.045 1090.62C226.819 1091.4 227.96 1093.03 227.999 1094.82C228.038 1096.62 226.969 1098.28 225.231 1099.13L201.826 1110.58L206.313 1134.41C206.804 1137.01 204.879 1139.48 202.015 1139.93C199.15 1140.38 196.43 1138.63 195.94 1136.02L192.049 1115.37L171.756 1125.3C169.197 1126.55 166.006 1125.68 164.629 1123.35ZM199.952 1100.63L211.204 1095.13L197.794 1089.18L199.952 1100.63Z" fill="url(#paint13_radial_0_1)"/>
<path d="M260.109 1108.91L252.781 1098.73H258.541L262.989 1105.64L267.405 1098.73H273.165L265.837 1108.91L273.517 1119.5H267.725L262.989 1112.14L258.221 1119.5H252.461L260.109 1108.91ZM276.037 1098.73H284.357C286.384 1098.73 287.984 1098.87 289.157 1099.15C290.352 1099.43 291.216 1099.92 291.749 1100.62C292.304 1101.3 292.581 1102.26 292.581 1103.5V1107.44C292.581 1108.8 292.282 1109.87 291.685 1110.64C291.109 1111.4 290.181 1111.95 288.901 1112.27C287.642 1112.59 285.936 1112.75 283.781 1112.75H281.029V1119.5H276.037V1098.73ZM284.197 1109.32C285.498 1109.32 286.416 1109.17 286.949 1108.88C287.482 1108.56 287.749 1108.02 287.749 1107.28V1103.95C287.749 1103.27 287.493 1102.82 286.981 1102.6C286.49 1102.39 285.541 1102.28 284.133 1102.28H281.029V1109.32H284.197Z" fill="url(#paint14_linear_0_1)"/>
<rect x="40" y="4" width="97.3594" height="30" rx="3" fill="#404040"/>
<rect x="40.5" y="4.5" width="96.3594" height="29" rx="2.5" stroke="black" stroke-opacity="0.14902"/>
<path d="M47.4375 14L49.5 17.3281H49.5625L51.625 14H52.7656L50.25 18L52.7656 22H51.625L49.5625 18.7344H49.5L47.4375 22H46.2969L48.875 18L46.2969 14H47.4375ZM54.0264 22V14H56.7295C57.3571 14 57.8701 14.1133 58.2686 14.3398C58.6696 14.5638 58.9665 14.8672 59.1592 15.25C59.3519 15.6328 59.4482 16.0599 59.4482 16.5312C59.4482 17.0026 59.3519 17.431 59.1592 17.8164C58.9691 18.2018 58.6748 18.5091 58.2764 18.7383C57.8779 18.9648 57.3675 19.0781 56.7451 19.0781H54.8076V18.2188H56.7139C57.1436 18.2188 57.4886 18.1445 57.749 17.9961C58.0094 17.8477 58.1982 17.6471 58.3154 17.3945C58.4352 17.1393 58.4951 16.8516 58.4951 16.5312C58.4951 16.2109 58.4352 15.9245 58.3154 15.6719C58.1982 15.4193 58.0081 15.2214 57.7451 15.0781C57.4821 14.9323 57.1331 14.8594 56.6982 14.8594H54.9951V22H54.0264ZM67.415 17.5703V18.4297H63.915V17.5703H67.415ZM72.2559 22V14H73.2246V17.5625H77.4902V14H78.459V22H77.4902V18.4219H73.2246V22H72.2559ZM82.7109 22.125C82.1693 22.125 81.694 21.9961 81.2852 21.7383C80.8789 21.4805 80.5612 21.1198 80.332 20.6562C80.1055 20.1927 79.9922 19.651 79.9922 19.0312C79.9922 18.4062 80.1055 17.8607 80.332 17.3945C80.5612 16.9284 80.8789 16.5664 81.2852 16.3086C81.694 16.0508 82.1693 15.9219 82.7109 15.9219C83.2526 15.9219 83.7266 16.0508 84.1328 16.3086C84.5417 16.5664 84.8594 16.9284 85.0859 17.3945C85.3151 17.8607 85.4297 18.4062 85.4297 19.0312C85.4297 19.651 85.3151 20.1927 85.0859 20.6562C84.8594 21.1198 84.5417 21.4805 84.1328 21.7383C83.7266 21.9961 83.2526 22.125 82.7109 22.125ZM82.7109 21.2969C83.1224 21.2969 83.4609 21.1914 83.7266 20.9805C83.9922 20.7695 84.1888 20.4922 84.3164 20.1484C84.444 19.8047 84.5078 19.4323 84.5078 19.0312C84.5078 18.6302 84.444 18.2565 84.3164 17.9102C84.1888 17.5638 83.9922 17.2839 83.7266 17.0703C83.4609 16.8568 83.1224 16.75 82.7109 16.75C82.2995 16.75 81.9609 16.8568 81.6953 17.0703C81.4297 17.2839 81.2331 17.5638 81.1055 17.9102C80.9779 18.2565 80.9141 18.6302 80.9141 19.0312C80.9141 19.4323 80.9779 19.8047 81.1055 20.1484C81.2331 20.4922 81.4297 20.7695 81.6953 20.9805C81.9609 21.1914 82.2995 21.2969 82.7109 21.2969ZM86.8369 22V16H87.7275V16.9375H87.8057C87.9307 16.6172 88.1325 16.3685 88.4111 16.1914C88.6898 16.0117 89.0244 15.9219 89.415 15.9219C89.8109 15.9219 90.1403 16.0117 90.4033 16.1914C90.6689 16.3685 90.876 16.6172 91.0244 16.9375H91.0869C91.2406 16.6276 91.471 16.3815 91.7783 16.1992C92.0856 16.0143 92.4541 15.9219 92.8838 15.9219C93.4202 15.9219 93.859 16.0898 94.2002 16.4258C94.5413 16.7591 94.7119 17.2786 94.7119 17.9844V22H93.79V17.9844C93.79 17.5417 93.6689 17.2253 93.4268 17.0352C93.1846 16.8451 92.8994 16.75 92.5713 16.75C92.1494 16.75 91.8226 16.8776 91.5908 17.1328C91.359 17.3854 91.2432 17.7057 91.2432 18.0937V22H90.3057V17.8906C90.3057 17.5495 90.195 17.2747 89.9736 17.0664C89.7523 16.8555 89.4671 16.75 89.1182 16.75C88.8786 16.75 88.6546 16.8138 88.4463 16.9414C88.2406 17.069 88.0739 17.2461 87.9463 17.4727C87.8213 17.6966 87.7588 17.9557 87.7588 18.25V22H86.8369ZM98.9131 22.125C98.335 22.125 97.8363 21.9974 97.417 21.7422C97.0003 21.4844 96.6787 21.125 96.4521 20.6641C96.2282 20.2005 96.1162 19.6615 96.1162 19.0469C96.1162 18.4323 96.2282 17.8906 96.4521 17.4219C96.6787 16.9505 96.9938 16.5833 97.3975 16.3203C97.8037 16.0547 98.2777 15.9219 98.8193 15.9219C99.1318 15.9219 99.4404 15.974 99.7451 16.0781C100.05 16.1823 100.327 16.3516 100.577 16.5859C100.827 16.8177 101.026 17.125 101.175 17.5078C101.323 17.8906 101.397 18.362 101.397 18.9219V19.3125H96.7725V18.5156H100.46C100.46 18.1771 100.392 17.875 100.257 17.6094C100.124 17.3437 99.9339 17.1341 99.6865 16.9805C99.4417 16.8268 99.1527 16.75 98.8193 16.75C98.4521 16.75 98.1344 16.8411 97.8662 17.0234C97.6006 17.2031 97.3962 17.4375 97.2529 17.7266C97.1097 18.0156 97.0381 18.3255 97.0381 18.6562V19.1875C97.0381 19.6406 97.1162 20.0247 97.2725 20.3398C97.4313 20.6523 97.6514 20.8906 97.9326 21.0547C98.2139 21.2161 98.5407 21.2969 98.9131 21.2969C99.1553 21.2969 99.374 21.263 99.5693 21.1953C99.7673 21.125 99.9378 21.0208 100.081 20.8828C100.224 20.7422 100.335 20.5677 100.413 20.3594L101.304 20.6094C101.21 20.9115 101.052 21.1771 100.831 21.4062C100.61 21.6328 100.336 21.8099 100.011 21.9375C99.6852 22.0625 99.3193 22.125 98.9131 22.125ZM106.019 22V14H108.722C109.349 14 109.862 14.1133 110.261 14.3398C110.662 14.5638 110.959 14.8672 111.151 15.25C111.344 15.6328 111.44 16.0599 111.44 16.5312C111.44 17.0026 111.344 17.431 111.151 17.8164C110.961 18.2018 110.667 18.5091 110.269 18.7383C109.87 18.9648 109.36 19.0781 108.737 19.0781H106.8V18.2188H108.706C109.136 18.2188 109.481 18.1445 109.741 17.9961C110.002 17.8477 110.19 17.6471 110.308 17.3945C110.427 17.1393 110.487 16.8516 110.487 16.5312C110.487 16.2109 110.427 15.9245 110.308 15.6719C110.19 15.4193 110 15.2214 109.737 15.0781C109.474 14.9323 109.125 14.8594 108.69 14.8594H106.987V22H106.019ZM114.642 22.1406C114.261 22.1406 113.916 22.069 113.606 21.9258C113.297 21.7799 113.05 21.5703 112.868 21.2969C112.686 21.0208 112.595 20.6875 112.595 20.2969C112.595 19.9531 112.662 19.6745 112.798 19.4609C112.933 19.2448 113.114 19.0755 113.341 18.9531C113.567 18.8307 113.817 18.7396 114.091 18.6797C114.367 18.6172 114.644 18.5677 114.923 18.5313C115.287 18.4844 115.583 18.4492 115.81 18.4258C116.039 18.3997 116.205 18.3568 116.31 18.2969C116.416 18.237 116.47 18.1328 116.47 17.9844V17.9531C116.47 17.5677 116.364 17.2682 116.153 17.0547C115.945 16.8411 115.629 16.7344 115.204 16.7344C114.764 16.7344 114.419 16.8307 114.169 17.0234C113.919 17.2161 113.743 17.4219 113.642 17.6406L112.767 17.3281C112.923 16.9635 113.131 16.6797 113.392 16.4766C113.655 16.2708 113.941 16.1276 114.251 16.0469C114.563 15.9635 114.871 15.9219 115.173 15.9219C115.366 15.9219 115.587 15.9453 115.837 15.9922C116.09 16.0365 116.333 16.1289 116.567 16.2695C116.804 16.4102 117.001 16.6224 117.157 16.9062C117.313 17.1901 117.392 17.5703 117.392 18.0469V22H116.47V21.1875H116.423C116.36 21.3177 116.256 21.457 116.11 21.6055C115.965 21.7539 115.771 21.8802 115.528 21.9844C115.286 22.0885 114.991 22.1406 114.642 22.1406ZM114.782 21.3125C115.147 21.3125 115.454 21.2409 115.704 21.0977C115.957 20.9544 116.147 20.7695 116.274 20.543C116.405 20.3164 116.47 20.0781 116.47 19.8281V18.9844C116.431 19.0312 116.345 19.0742 116.212 19.1133C116.082 19.1497 115.931 19.1823 115.759 19.2109C115.59 19.237 115.424 19.2604 115.263 19.2812C115.104 19.2995 114.975 19.3151 114.876 19.3281C114.636 19.3594 114.412 19.4102 114.204 19.4805C113.998 19.5482 113.832 19.651 113.704 19.7891C113.579 19.9245 113.517 20.1094 113.517 20.3437C113.517 20.6641 113.635 20.9062 113.872 21.0703C114.112 21.2318 114.415 21.3125 114.782 21.3125ZM121.496 24.375C121.051 24.375 120.668 24.3177 120.348 24.2031C120.027 24.0911 119.76 23.9427 119.547 23.7578C119.336 23.5755 119.168 23.3802 119.043 23.1719L119.777 22.6563C119.861 22.7656 119.966 22.8906 120.094 23.0312C120.221 23.1745 120.396 23.2982 120.617 23.4023C120.841 23.5091 121.134 23.5625 121.496 23.5625C121.98 23.5625 122.38 23.4453 122.695 23.2109C123.01 22.9766 123.168 22.6094 123.168 22.1094V20.8906H123.09C123.022 21 122.926 21.1354 122.801 21.2969C122.678 21.4557 122.501 21.5977 122.27 21.7227C122.04 21.8451 121.73 21.9062 121.34 21.9062C120.855 21.9062 120.421 21.7917 120.035 21.5625C119.652 21.3333 119.349 21 119.125 20.5625C118.904 20.125 118.793 19.5937 118.793 18.9687C118.793 18.3542 118.901 17.819 119.117 17.3633C119.333 16.9049 119.634 16.5508 120.02 16.3008C120.405 16.0482 120.85 15.9219 121.355 15.9219C121.746 15.9219 122.056 15.987 122.285 16.1172C122.517 16.2448 122.694 16.3906 122.816 16.5547C122.941 16.7161 123.038 16.849 123.105 16.9531H123.199V16H124.09V22.1719C124.09 22.6875 123.973 23.1068 123.738 23.4297C123.507 23.7552 123.194 23.9935 122.801 24.1445C122.41 24.2982 121.975 24.375 121.496 24.375ZM121.465 21.0781C121.835 21.0781 122.147 20.9935 122.402 20.8242C122.658 20.6549 122.852 20.4115 122.984 20.0938C123.117 19.776 123.184 19.3958 123.184 18.9531C123.184 18.5208 123.118 18.1393 122.988 17.8086C122.858 17.4779 122.665 17.2187 122.41 17.0312C122.155 16.8437 121.84 16.75 121.465 16.75C121.074 16.75 120.749 16.849 120.488 17.0469C120.23 17.2448 120.036 17.5104 119.906 17.8438C119.779 18.1771 119.715 18.5469 119.715 18.9531C119.715 19.3698 119.78 19.7383 119.91 20.0586C120.043 20.3763 120.238 20.6263 120.496 20.8086C120.757 20.9883 121.079 21.0781 121.465 21.0781ZM128.293 22.125C127.715 22.125 127.216 21.9974 126.797 21.7422C126.38 21.4844 126.059 21.125 125.832 20.6641C125.608 20.2005 125.496 19.6615 125.496 19.0469C125.496 18.4323 125.608 17.8906 125.832 17.4219C126.059 16.9505 126.374 16.5833 126.777 16.3203C127.184 16.0547 127.658 15.9219 128.199 15.9219C128.512 15.9219 128.82 15.974 129.125 16.0781C129.43 16.1823 129.707 16.3516 129.957 16.5859C130.207 16.8177 130.406 17.125 130.555 17.5078C130.703 17.8906 130.777 18.362 130.777 18.9219V19.3125H126.152V18.5156H129.84C129.84 18.1771 129.772 17.875 129.637 17.6094C129.504 17.3437 129.314 17.1341 129.066 16.9805C128.822 16.8268 128.533 16.75 128.199 16.75C127.832 16.75 127.514 16.8411 127.246 17.0234C126.98 17.2031 126.776 17.4375 126.633 17.7266C126.49 18.0156 126.418 18.3255 126.418 18.6562V19.1875C126.418 19.6406 126.496 20.0247 126.652 20.3398C126.811 20.6523 127.031 20.8906 127.313 21.0547C127.594 21.2161 127.921 21.2969 128.293 21.2969C128.535 21.2969 128.754 21.263 128.949 21.1953C129.147 21.125 129.318 21.0208 129.461 20.8828C129.604 20.7422 129.715 20.5677 129.793 20.3594L130.684 20.6094C130.59 20.9115 130.432 21.1771 130.211 21.4062C129.99 21.6328 129.716 21.8099 129.391 21.9375C129.065 22.0625 128.699 22.125 128.293 22.125Z" fill="white"/>
<defs>
<radialGradient id="paint0_radial_0_1" cx="0" cy="0" r="1" gradientUnits="userSpaceOnUse" gradientTransform="translate(363.279 1104.79) rotate(79.333) scale(55.3853 57.3931)">
<stop stop-color="#8A609F"/>
<stop offset="0.661458" stop-color="#9F6060"/>
<stop offset="1" stop-color="#804D4D"/>
</radialGradient>
<linearGradient id="paint1_linear_0_1" x1="180" y1="0" x2="180" y2="800" gradientUnits="userSpaceOnUse">
<stop stop-color="#503030"/>
<stop offset="0.510317" stop-color="#503050" stop-opacity="0"/>
<stop offset="0.510417" stop-color="#503030" stop-opacity="0"/>
<stop offset="1" stop-color="#503050"/>
</linearGradient>
<linearGradient id="paint2_linear_0_1" x1="644.404" y1="677" x2="644.404" y2="751" gradientUnits="userSpaceOnUse">
<stop stop-color="#C5AFCF"/>
<stop offset="0.71875" stop-color="#8A609F"/>
<stop offset="1" stop-color="#503050"/>
</linearGradient>
<linearGradient id="paint3_linear_0_1" x1="644.404" y1="787" x2="644.404" y2="851" gradientUnits="userSpaceOnUse">
<stop stop-color="#BC8F8F"/>
<stop offset="0.28125" stop-color="#9F6060"/>
<stop offset="1" stop-color="#503030"/>
</linearGradient>
<radialGradient id="paint4_radial_0_1" cx="0" cy="0" r="1" gradientUnits="userSpaceOnUse" gradientTransform="translate(524.357 398.393) rotate(68.6035) scale(29.2286 56.5587)">
<stop stop-color="#8A609F"/>
<stop offset="0.661458" stop-color="#9F6060"/>
<stop offset="1" stop-color="#804D4D"/>
</radialGradient>
<linearGradient id="paint5_linear_0_1" x1="484.185" y1="381.433" x2="484.185" y2="438.957" gradientUnits="userSpaceOnUse">
<stop stop-color="#8A609F"/>
<stop offset="0.6875" stop-color="#9F6060"/>
<stop offset="1" stop-color="#804D4D"/>
</linearGradient>
<linearGradient id="paint6_linear_0_1" x1="551.958" y1="400.841" x2="551.958" y2="421.841" gradientUnits="userSpaceOnUse">
<stop stop-color="#8A609F"/>
<stop offset="0.6875" stop-color="#9F6060"/>
<stop offset="1" stop-color="#804D4D"/>
</linearGradient>
<linearGradient id="paint7_linear_0_1" x1="720" y1="0" x2="720" y2="1024" gradientUnits="userSpaceOnUse">
<stop stop-color="#503030"/>
<stop offset="0.489583" stop-color="#503030" stop-opacity="0"/>
<stop offset="0.489683" stop-color="#503050" stop-opacity="0"/>
<stop offset="1" stop-color="#503050"/>
</linearGradient>
<linearGradient id="paint8_linear_0_1" x1="1608.4" y1="478" x2="1608.4" y2="626" gradientUnits="userSpaceOnUse">
<stop stop-color="#C5AFCF"/>
<stop offset="0.71875" stop-color="#8A609F"/>
<stop offset="1" stop-color="#503050"/>
</linearGradient>
<linearGradient id="paint9_linear_0_1" x1="1608.4" y1="698" x2="1608.4" y2="826" gradientUnits="userSpaceOnUse">
<stop stop-color="#BC8F8F"/>
<stop offset="0.28125" stop-color="#9F6060"/>
<stop offset="1" stop-color="#503030"/>
</linearGradient>
<radialGradient id="paint10_radial_0_1" cx="0" cy="0" r="1" gradientUnits="userSpaceOnUse" gradientTransform="translate(973.8 176.786) rotate(69.3402) scale(58.1689 109.396)">
<stop stop-color="#8A609F"/>
<stop offset="0.661458" stop-color="#9F6060"/>
<stop offset="1" stop-color="#804D4D"/>
</radialGradient>
<linearGradient id="paint11_linear_0_1" x1="896.482" y1="143.55" x2="896.482" y2="257.572" gradientUnits="userSpaceOnUse">
<stop stop-color="#8A609F"/>
<stop offset="0.6875" stop-color="#9F6060"/>
<stop offset="1" stop-color="#804D4D"/>
</linearGradient>
<linearGradient id="paint12_linear_0_1" x1="1028.54" y1="184.384" x2="1028.54" y2="221.384" gradientUnits="userSpaceOnUse">
<stop stop-color="#8A609F"/>
<stop offset="0.6875" stop-color="#9F6060"/>
<stop offset="1" stop-color="#804D4D"/>
</linearGradient>
<radialGradient id="paint13_radial_0_1" cx="0" cy="0" r="1" gradientUnits="userSpaceOnUse" gradientTransform="translate(190.875 1080.79) rotate(79.333) scale(55.3853 57.3931)">
<stop stop-color="#8A609F"/>
<stop offset="0.661458" stop-color="#9F6060"/>
<stop offset="1" stop-color="#804D4D"/>
</radialGradient>
<linearGradient id="paint14_linear_0_1" x1="273" y1="1089.5" x2="273" y2="1126.5" gradientUnits="userSpaceOnUse">
<stop stop-color="#8A609F"/>
<stop offset="0.6875" stop-color="#9F6060"/>
<stop offset="1" stop-color="#804D4D"/>
</linearGradient>
<clipPath id="clip0_0_1">
<rect width="360" height="800" fill="white" transform="translate(464.404 364)"/>
</clipPath>
<clipPath id="clip1_0_1">
<rect width="1440" height="1024" fill="white" transform="translate(888.404 140)"/>
</clipPath>
</defs>
</svg>
