<svg width="2073" height="1104" viewBox="0 0 2073 1104" fill="none" xmlns="http://www.w3.org/2000/svg">
<path fill-rule="evenodd" clip-rule="evenodd" d="M41.0334 1047.35C39.6565 1045.02 40.615 1042.12 43.1744 1040.87L66.5792 1029.42L62.0921 1005.59C61.7588 1003.82 62.5427 1002.03 64.1222 1000.96C65.7018 999.88 67.8113 999.697 69.5857 1000.48L101.449 1014.62C103.223 1015.4 104.364 1017.03 104.403 1018.82C104.443 1020.62 103.374 1022.28 101.635 1023.13L78.2304 1034.58L82.7175 1058.41C83.2081 1061.01 81.2837 1063.48 78.4192 1063.93C75.5546 1064.38 72.8347 1062.63 72.344 1060.02L68.4536 1039.37L48.1607 1049.3C45.6014 1050.55 42.4103 1049.68 41.0334 1047.35ZM76.356 1024.63L87.6085 1019.13L74.1988 1013.18L76.356 1024.63Z" fill="url(#paint0_radial_0_1)"/>
<g clip-path="url(#clip0_0_1)">
<rect width="360" height="800" transform="translate(168.404 264)" fill="#1F1F1F"/>
<rect width="360" height="800" transform="translate(168.404 264)" fill="url(#paint1_linear_0_1)"/>
<path d="M192 1030C186.489 1030 182 1034.49 182 1040C182 1045.51 186.489 1050 192 1050C197.511 1050 202 1045.51 202 1040C202 1034.49 197.511 1030 192 1030ZM192 1032C196.43 1032 200 1035.57 200 1040C200 1044.43 196.43 1048 192 1048C187.57 1048 184 1044.43 184 1040C184 1035.57 187.57 1032 192 1032ZM191 1035V1037H193V1035H191ZM191 1039V1045H193V1039H191Z" fill="#A3998F"/>
<path d="M215.28 1046H210.528V1044.83L211.84 1044.32V1036.27L210.528 1035.74V1034.58H215.28V1035.74L213.984 1036.27V1044.32L215.28 1044.83V1046ZM221.54 1037.17C222.447 1037.17 223.161 1037.42 223.684 1037.92C224.207 1038.42 224.468 1039.23 224.468 1040.35V1046H222.34V1040.75C222.34 1040.1 222.228 1039.62 222.004 1039.3C221.78 1038.97 221.428 1038.8 220.948 1038.8C220.233 1038.8 219.748 1039.06 219.492 1039.57C219.236 1040.07 219.108 1040.8 219.108 1041.76V1046H216.98V1037.33H218.612L218.916 1038.46H218.996C219.188 1038.17 219.412 1037.92 219.668 1037.73C219.924 1037.54 220.212 1037.4 220.532 1037.31C220.852 1037.22 221.188 1037.17 221.54 1037.17ZM231.162 1038.85H229.242V1046H227.114V1038.85H225.866V1037.89L227.13 1037.31V1036.72C227.13 1035.97 227.237 1035.39 227.45 1034.96C227.663 1034.53 227.978 1034.23 228.394 1034.05C228.81 1033.86 229.317 1033.76 229.914 1033.76C230.309 1033.76 230.666 1033.8 230.986 1033.87C231.317 1033.94 231.61 1034.01 231.866 1034.1L231.354 1035.6C231.194 1035.55 231.013 1035.5 230.81 1035.46C230.618 1035.4 230.415 1035.38 230.202 1035.38C229.871 1035.38 229.626 1035.5 229.466 1035.74C229.317 1035.99 229.242 1036.33 229.242 1036.77V1037.33H231.162V1038.85ZM239.905 1041.65C239.905 1042.37 239.814 1043.01 239.633 1043.57C239.452 1044.12 239.185 1044.6 238.833 1044.99C238.492 1045.38 238.076 1045.67 237.585 1045.87C237.094 1046.06 236.545 1046.16 235.937 1046.16C235.372 1046.16 234.844 1046.06 234.353 1045.87C233.873 1045.67 233.457 1045.38 233.105 1044.99C232.764 1044.6 232.497 1044.12 232.305 1043.57C232.113 1043.01 232.017 1042.37 232.017 1041.65C232.017 1040.69 232.172 1039.88 232.481 1039.22C232.801 1038.54 233.26 1038.04 233.857 1037.7C234.454 1037.34 235.164 1037.17 235.985 1037.17C236.753 1037.17 237.43 1037.34 238.017 1037.7C238.604 1038.04 239.062 1038.54 239.393 1039.22C239.734 1039.88 239.905 1040.69 239.905 1041.65ZM234.177 1041.65C234.177 1042.26 234.241 1042.78 234.369 1043.22C234.497 1043.64 234.689 1043.97 234.945 1044.19C235.212 1044.42 235.553 1044.53 235.969 1044.53C236.385 1044.53 236.721 1044.42 236.977 1044.19C237.244 1043.97 237.436 1043.64 237.553 1043.22C237.681 1042.78 237.745 1042.26 237.745 1041.65C237.745 1041.03 237.681 1040.51 237.553 1040.1C237.425 1039.67 237.228 1039.35 236.961 1039.14C236.705 1038.91 236.369 1038.8 235.953 1038.8C235.324 1038.8 234.87 1039.05 234.593 1039.54C234.316 1040.03 234.177 1040.73 234.177 1041.65Z" fill="#A3998F"/>
<path d="M448 1030C446.906 1030 446 1030.91 446 1032V1048C446 1049.09 446.906 1050 448 1050H460C461.094 1050 462 1049.09 462 1048V1036L456 1030H448ZM448 1032H455V1037H460V1048H448V1032ZM450 1040V1042H458V1040H450ZM450 1044V1046H458V1044H450Z" fill="#A3998F"/>
<path d="M477.68 1039.73H481.856V1045.54C481.291 1045.74 480.688 1045.89 480.048 1046C479.419 1046.11 478.725 1046.16 477.968 1046.16C476.891 1046.16 475.968 1045.93 475.2 1045.47C474.443 1045.01 473.861 1044.35 473.456 1043.47C473.051 1042.6 472.848 1041.53 472.848 1040.27C472.848 1039.08 473.067 1038.04 473.504 1037.17C473.941 1036.29 474.576 1035.62 475.408 1035.14C476.24 1034.66 477.259 1034.42 478.464 1034.42C479.072 1034.42 479.653 1034.48 480.208 1034.61C480.773 1034.73 481.285 1034.89 481.744 1035.1L481.024 1036.78C480.651 1036.6 480.245 1036.45 479.808 1036.34C479.381 1036.21 478.923 1036.14 478.432 1036.14C477.707 1036.14 477.093 1036.31 476.592 1036.66C476.101 1037 475.723 1037.48 475.456 1038.11C475.2 1038.73 475.072 1039.46 475.072 1040.3C475.072 1041.11 475.184 1041.83 475.408 1042.46C475.632 1043.08 475.968 1043.57 476.416 1043.92C476.875 1044.26 477.467 1044.43 478.192 1044.43C478.416 1044.43 478.624 1044.42 478.816 1044.4C479.008 1044.38 479.184 1044.35 479.344 1044.32C479.515 1044.29 479.664 1044.26 479.792 1044.22V1041.47H477.68V1039.73ZM491.545 1037.33V1046H489.913L489.641 1044.88H489.529C489.358 1045.18 489.139 1045.42 488.873 1045.62C488.606 1045.8 488.313 1045.93 487.993 1046.02C487.673 1046.11 487.342 1046.16 487.001 1046.16C486.403 1046.16 485.886 1046.05 485.449 1045.82C485.011 1045.6 484.67 1045.26 484.425 1044.8C484.19 1044.33 484.073 1043.73 484.073 1042.99V1037.33H486.201V1042.59C486.201 1043.23 486.307 1043.72 486.521 1044.05C486.745 1044.37 487.097 1044.53 487.577 1044.53C488.057 1044.53 488.43 1044.42 488.697 1044.19C488.974 1043.96 489.166 1043.62 489.273 1043.18C489.379 1042.75 489.433 1042.21 489.433 1041.57V1037.33H491.545ZM495.999 1037.33V1046H493.887V1037.33H495.999ZM494.959 1033.98C495.268 1033.98 495.535 1034.06 495.759 1034.22C495.983 1034.37 496.095 1034.65 496.095 1035.04C496.095 1035.42 495.983 1035.7 495.759 1035.87C495.535 1036.03 495.268 1036.11 494.959 1036.11C494.628 1036.11 494.351 1036.03 494.127 1035.87C493.903 1035.7 493.791 1035.42 493.791 1035.04C493.791 1034.65 493.903 1034.37 494.127 1034.22C494.351 1034.06 494.628 1033.98 494.959 1033.98ZM500.996 1046.16C500.068 1046.16 499.316 1045.79 498.74 1045.04C498.164 1044.28 497.876 1043.16 497.876 1041.68C497.876 1040.2 498.17 1039.08 498.756 1038.32C499.343 1037.55 500.111 1037.17 501.06 1037.17C501.455 1037.17 501.796 1037.23 502.084 1037.34C502.383 1037.45 502.639 1037.6 502.852 1037.79C503.066 1037.98 503.252 1038.2 503.412 1038.43H503.476C503.455 1038.28 503.428 1038.05 503.396 1037.74C503.364 1037.43 503.348 1037.15 503.348 1036.88V1033.84H505.476V1046H503.844L503.444 1044.86H503.348C503.21 1045.1 503.034 1045.32 502.82 1045.52C502.607 1045.71 502.351 1045.87 502.052 1045.98C501.754 1046.1 501.402 1046.16 500.996 1046.16ZM501.7 1044.53C502.351 1044.53 502.81 1044.31 503.076 1043.89C503.343 1043.46 503.476 1042.82 503.476 1041.95V1041.7C503.476 1040.76 503.348 1040.04 503.092 1039.55C502.836 1039.06 502.367 1038.82 501.684 1038.82C501.151 1038.82 500.74 1039.07 500.452 1039.58C500.175 1040.09 500.036 1040.79 500.036 1041.71C500.036 1042.63 500.18 1043.33 500.468 1043.81C500.756 1044.29 501.167 1044.53 501.7 1044.53ZM511.185 1037.17C511.932 1037.17 512.572 1037.33 513.105 1037.65C513.649 1037.96 514.07 1038.41 514.369 1038.99C514.668 1039.57 514.817 1040.27 514.817 1041.1V1042.13H509.505C509.526 1042.92 509.718 1043.53 510.081 1043.97C510.454 1044.39 510.977 1044.61 511.649 1044.61C512.182 1044.61 512.657 1044.55 513.073 1044.45C513.489 1044.33 513.921 1044.17 514.369 1043.95V1045.57C513.964 1045.77 513.542 1045.92 513.105 1046.02C512.668 1046.11 512.129 1046.16 511.489 1046.16C510.678 1046.16 509.958 1046 509.329 1045.68C508.71 1045.35 508.225 1044.85 507.873 1044.19C507.521 1043.53 507.345 1042.71 507.345 1041.73C507.345 1040.74 507.505 1039.9 507.825 1039.23C508.145 1038.55 508.593 1038.04 509.169 1037.7C509.756 1037.34 510.428 1037.17 511.185 1037.17ZM511.217 1038.66C510.737 1038.66 510.348 1038.83 510.049 1039.18C509.761 1039.53 509.59 1040.04 509.537 1040.72H512.801C512.801 1040.31 512.742 1039.96 512.625 1039.65C512.508 1039.34 512.332 1039.1 512.097 1038.93C511.873 1038.75 511.58 1038.66 511.217 1038.66Z" fill="#A3998F"/>
<path d="M249.91 586.232H254.902V603.448H265.11V607H249.91V586.232ZM276.056 607.32C270.574 607.32 267.832 605.645 267.832 602.296V596.728C267.832 594.787 268.451 593.379 269.688 592.504C270.947 591.629 272.878 591.192 275.48 591.192C277.934 591.192 279.726 591.619 280.856 592.472C282.008 593.304 282.584 594.723 282.584 596.728V600.504H272.536V601.912C272.536 602.808 272.856 603.448 273.496 603.832C274.136 604.216 275.288 604.408 276.952 604.408C278.488 604.408 280.216 604.184 282.136 603.736V606.712C280.238 607.117 278.211 607.32 276.056 607.32ZM278.136 597.848V595.608C278.136 595.096 277.923 594.712 277.496 594.456C277.091 594.2 276.398 594.072 275.416 594.072C274.286 594.072 273.528 594.2 273.144 594.456C272.739 594.733 272.536 595.117 272.536 595.608V597.848H278.136ZM293.899 607.32C293.11 607.32 292.449 607.288 291.915 607.224C291.382 607.16 290.849 607.032 290.315 606.84C289.718 606.648 289.227 606.381 288.843 606.04C288.481 605.699 288.182 605.229 287.947 604.632C287.691 604.013 287.563 603.299 287.563 602.488V594.392H284.427V591.512H287.563V587.032H292.235V591.512H296.491V594.392H292.235V601.688C292.235 602.435 292.299 603 292.427 603.384C292.555 603.747 292.801 604.013 293.163 604.184C293.526 604.333 294.081 604.408 294.827 604.408C295.126 604.408 295.681 604.355 296.491 604.248V607.16C295.489 607.267 294.625 607.32 293.899 607.32ZM300.051 586.232H304.915L301.907 593.272H298.579L300.051 586.232ZM313.166 607.32C311.502 607.32 309.465 607.16 307.054 606.84V603.736C310.02 604.184 312.078 604.408 313.23 604.408C314.212 604.408 314.937 604.312 315.406 604.12C315.876 603.928 316.11 603.576 316.11 603.064V602.104C316.11 601.571 315.961 601.197 315.662 600.984C315.364 600.749 314.777 600.632 313.902 600.632H311.886C310.244 600.632 308.974 600.312 308.078 599.672C307.182 599.011 306.734 598.051 306.734 596.792V594.904C306.734 593.56 307.374 592.611 308.654 592.056C309.934 591.48 311.865 591.192 314.446 591.192C315.47 591.192 317.305 591.288 319.95 591.48V594.456C316.622 594.2 314.745 594.072 314.318 594.072C313.06 594.072 312.238 594.157 311.854 594.328C311.513 594.52 311.342 594.872 311.342 595.384V596.216C311.342 596.493 311.481 596.739 311.758 596.952C312.036 597.144 312.441 597.24 312.974 597.24H315.022C318.82 597.24 320.718 598.477 320.718 600.952V602.904C320.718 603.651 320.58 604.301 320.302 604.856C320.025 605.411 319.662 605.848 319.214 606.168C318.788 606.467 318.233 606.701 317.55 606.872C316.889 607.043 316.196 607.16 315.47 607.224C314.809 607.288 314.041 607.32 313.166 607.32ZM331.562 591.512H335.978V593.048C336.255 592.365 336.799 591.885 337.61 591.608C338.42 591.331 339.626 591.192 341.226 591.192C342.57 591.192 343.647 591.299 344.458 591.512C345.29 591.725 345.919 592.067 346.346 592.536C346.751 593.005 347.028 593.528 347.178 594.104C347.327 594.659 347.402 595.427 347.402 596.408V601.496C347.402 603.032 347.178 604.216 346.73 605.048C346.282 605.88 345.588 606.467 344.65 606.808C343.732 607.149 342.474 607.32 340.874 607.32C339.338 607.32 338.228 607.192 337.546 606.936C336.863 606.68 336.426 606.179 336.234 605.432V613.656H331.562V591.512ZM339.434 604.408C340.351 604.408 341.044 604.344 341.514 604.216C341.983 604.088 342.303 603.864 342.474 603.544C342.644 603.224 342.73 602.744 342.73 602.104V596.376C342.73 595.672 342.655 595.171 342.506 594.872C342.356 594.552 342.058 594.339 341.61 594.232C341.162 594.125 340.426 594.072 339.402 594.072C338.527 594.072 337.855 594.147 337.386 594.296C336.938 594.445 336.628 594.68 336.458 595C336.308 595.32 336.234 595.779 336.234 596.376V602.104C336.234 602.744 336.308 603.224 336.458 603.544C336.628 603.864 336.938 604.088 337.386 604.216C337.834 604.344 338.516 604.408 339.434 604.408ZM351.062 591.512H355.51V594.232C355.51 593.741 355.712 593.261 356.118 592.792C356.523 592.323 357.035 591.939 357.654 591.64C358.294 591.341 358.923 591.192 359.542 591.192H361.206V595.064H359.606C358.283 595.064 357.302 595.267 356.662 595.672C356.043 596.077 355.734 596.749 355.734 597.688V607H351.062V591.512ZM371.556 607.32C366.074 607.32 363.332 605.645 363.332 602.296V596.728C363.332 594.787 363.951 593.379 365.188 592.504C366.447 591.629 368.378 591.192 370.98 591.192C373.434 591.192 375.226 591.619 376.356 592.472C377.508 593.304 378.084 594.723 378.084 596.728V600.504H368.036V601.912C368.036 602.808 368.356 603.448 368.996 603.832C369.636 604.216 370.788 604.408 372.452 604.408C373.988 604.408 375.716 604.184 377.636 603.736V606.712C375.738 607.117 373.711 607.32 371.556 607.32ZM373.636 597.848V595.608C373.636 595.096 373.423 594.712 372.996 594.456C372.591 594.2 371.898 594.072 370.916 594.072C369.786 594.072 369.028 594.2 368.644 594.456C368.239 594.733 368.036 595.117 368.036 595.608V597.848H373.636ZM379.607 591.512H384.567L387.959 602.232L391.223 591.512H395.927L390.231 607H385.495L379.607 591.512ZM398.096 585.912H402.768V589.688H398.096V585.912ZM398.096 591.512H402.768V607H398.096V591.512ZM414.775 607.32C409.293 607.32 406.551 605.645 406.551 602.296V596.728C406.551 594.787 407.17 593.379 408.407 592.504C409.666 591.629 411.597 591.192 414.199 591.192C416.653 591.192 418.445 591.619 419.575 592.472C420.727 593.304 421.303 594.723 421.303 596.728V600.504H411.255V601.912C411.255 602.808 411.575 603.448 412.215 603.832C412.855 604.216 414.007 604.408 415.671 604.408C417.207 604.408 418.935 604.184 420.855 603.736V606.712C418.957 607.117 416.93 607.32 414.775 607.32ZM416.855 597.848V595.608C416.855 595.096 416.642 594.712 416.215 594.456C415.81 594.2 415.117 594.072 414.135 594.072C413.005 594.072 412.247 594.2 411.863 594.456C411.458 594.733 411.255 595.117 411.255 595.608V597.848H416.855ZM423.082 591.512H427.85L430.73 602.744L433.802 591.512H438.378L441.578 602.744L444.33 591.512H448.874L443.818 607H439.082L436.01 596.536L433.002 607H428.266L423.082 591.512ZM285.227 643.872L279.051 628.512H284.139L287.627 639.456L290.795 628.512H295.627L287.147 650.656H282.411L285.227 643.872ZM305.361 644.32C304.401 644.32 303.611 644.288 302.993 644.224C302.374 644.16 301.713 644.032 301.009 643.84C300.241 643.627 299.622 643.328 299.153 642.944C298.683 642.539 298.289 641.973 297.969 641.248C297.649 640.544 297.489 639.691 297.489 638.688V634.112C297.489 633.088 297.649 632.192 297.969 631.424C298.289 630.656 298.705 630.059 299.217 629.632C299.665 629.269 300.251 628.971 300.977 628.736C301.723 628.48 302.449 628.32 303.153 628.256C303.963 628.213 304.699 628.192 305.361 628.192C306.342 628.192 307.121 628.224 307.697 628.288C308.294 628.331 308.945 628.459 309.649 628.672C310.417 628.907 311.035 629.227 311.505 629.632C311.995 630.037 312.411 630.613 312.753 631.36C313.073 632.128 313.233 633.045 313.233 634.112V638.688C313.233 639.648 313.073 640.491 312.753 641.216C312.454 641.941 312.059 642.507 311.569 642.912C311.142 643.275 310.555 643.573 309.809 643.808C309.083 644.021 308.369 644.16 307.665 644.224C307.025 644.288 306.257 644.32 305.361 644.32ZM305.361 641.408C306.235 641.408 306.897 641.344 307.345 641.216C307.793 641.067 308.102 640.843 308.273 640.544C308.465 640.245 308.561 639.808 308.561 639.232V633.376C308.561 632.523 308.337 631.925 307.889 631.584C307.441 631.243 306.598 631.072 305.361 631.072C304.123 631.072 303.281 631.243 302.833 631.584C302.385 631.925 302.161 632.523 302.161 633.376V639.232C302.161 639.808 302.246 640.245 302.417 640.544C302.609 640.843 302.929 641.067 303.377 641.216C303.825 641.344 304.486 641.408 305.361 641.408ZM322.25 644.32C320.266 644.32 318.869 643.968 318.058 643.264C317.269 642.539 316.874 641.408 316.874 639.872V628.512H321.546V639.232C321.546 639.829 321.6 640.277 321.706 640.576C321.834 640.875 322.069 641.088 322.41 641.216C322.773 641.344 323.317 641.408 324.042 641.408C324.96 641.408 325.632 641.355 326.058 641.248C326.485 641.12 326.773 640.907 326.922 640.608C327.072 640.309 327.146 639.851 327.146 639.232V628.512H331.818V644H327.21V642.112C326.869 643.584 325.216 644.32 322.25 644.32ZM335.905 628.512H340.353V631.232C340.353 630.741 340.556 630.261 340.961 629.792C341.367 629.323 341.879 628.939 342.497 628.64C343.137 628.341 343.767 628.192 344.385 628.192H346.049V632.064H344.449C343.127 632.064 342.145 632.267 341.505 632.672C340.887 633.077 340.577 633.749 340.577 634.688V644H335.905V628.512ZM357.183 631.392H354.271V628.512H357.183V626.176C357.183 624.917 357.386 623.936 357.791 623.232C358.218 622.507 358.858 622.005 359.711 621.728C360.586 621.429 361.749 621.28 363.199 621.28C363.925 621.28 364.842 621.333 365.951 621.44V624.32C365.034 624.213 364.362 624.16 363.935 624.16C363.146 624.16 362.602 624.288 362.303 624.544C362.005 624.779 361.855 625.237 361.855 625.92V628.512H365.791V631.392H361.855V644H357.183V631.392ZM367.455 621.6H372.127V625.376H367.455V621.6ZM367.455 628.512H372.127V644H367.455V628.512ZM376.471 621.6H381.143V644H376.471V621.6ZM393.15 644.32C387.668 644.32 384.926 642.645 384.926 639.296V633.728C384.926 631.787 385.545 630.379 386.782 629.504C388.041 628.629 389.972 628.192 392.574 628.192C395.028 628.192 396.82 628.619 397.95 629.472C399.102 630.304 399.678 631.723 399.678 633.728V637.504H389.63V638.912C389.63 639.808 389.95 640.448 390.59 640.832C391.23 641.216 392.382 641.408 394.046 641.408C395.582 641.408 397.31 641.184 399.23 640.736V643.712C397.332 644.117 395.305 644.32 393.15 644.32ZM395.23 634.848V632.608C395.23 632.096 395.017 631.712 394.59 631.456C394.185 631.2 393.492 631.072 392.51 631.072C391.38 631.072 390.622 631.2 390.238 631.456C389.833 631.733 389.63 632.117 389.63 632.608V634.848H395.23ZM409.041 644.32C407.377 644.32 405.34 644.16 402.929 643.84V640.736C405.895 641.184 407.953 641.408 409.105 641.408C410.087 641.408 410.812 641.312 411.281 641.12C411.751 640.928 411.985 640.576 411.985 640.064V639.104C411.985 638.571 411.836 638.197 411.537 637.984C411.239 637.749 410.652 637.632 409.777 637.632H407.761C406.119 637.632 404.849 637.312 403.953 636.672C403.057 636.011 402.609 635.051 402.609 633.792V631.904C402.609 630.56 403.249 629.611 404.529 629.056C405.809 628.48 407.74 628.192 410.321 628.192C411.345 628.192 413.18 628.288 415.825 628.48V631.456C412.497 631.2 410.62 631.072 410.193 631.072C408.935 631.072 408.113 631.157 407.729 631.328C407.388 631.52 407.217 631.872 407.217 632.384V633.216C407.217 633.493 407.356 633.739 407.633 633.952C407.911 634.144 408.316 634.24 408.849 634.24H410.897C414.695 634.24 416.593 635.477 416.593 637.952V639.904C416.593 640.651 416.455 641.301 416.177 641.856C415.9 642.411 415.537 642.848 415.089 643.168C414.663 643.467 414.108 643.701 413.425 643.872C412.764 644.043 412.071 644.16 411.345 644.224C410.684 644.288 409.916 644.32 409.041 644.32Z" fill="url(#paint2_linear_0_1)"/>
<path d="M359.089 735.762C360.798 735.762 362.141 737.103 362.141 738.81C362.141 740.516 360.798 741.857 359.089 741.857C357.379 741.857 356.036 740.516 356.036 738.81C356.036 737.103 357.379 735.762 359.089 735.762ZM359.089 726.619C350.755 726.619 343.642 731.678 340.773 738.81C343.642 745.941 350.755 751 359.089 751C367.422 751 374.535 745.941 377.404 738.81C374.535 731.678 367.422 726.619 359.089 726.619ZM359.089 746.429C357.064 746.429 355.123 745.626 353.692 744.197C352.261 742.768 351.457 740.83 351.457 738.81C351.457 736.789 352.261 734.851 353.692 733.422C355.123 731.993 357.064 731.19 359.089 731.19C361.113 731.19 363.054 731.993 364.485 733.422C365.916 734.851 366.72 736.789 366.72 738.81C366.72 740.83 365.916 742.768 364.485 744.197C363.054 745.626 361.113 746.429 359.089 746.429ZM335.492 741.857H325.51V693.095H346.878V708.333H362.141V720.737C364.278 720.981 366.293 721.499 368.246 722.23V705.286L349.931 687H325.51C323.89 687 322.337 687.642 321.192 688.785C320.048 689.928 319.404 691.479 319.404 693.095V741.857C319.404 743.474 320.048 745.024 321.192 746.167C322.337 747.31 323.89 747.952 325.51 747.952H339.246C337.72 746.154 336.469 744.082 335.492 741.857Z" fill="url(#paint3_linear_0_1)"/>
<path fill-rule="evenodd" clip-rule="evenodd" d="M180.719 299.674C180.03 298.51 180.51 297.059 181.789 296.433L193.492 290.708L191.248 278.797C191.082 277.912 191.473 277.017 192.263 276.478C193.053 275.94 194.108 275.849 194.995 276.242L210.927 283.309C211.814 283.702 212.384 284.514 212.404 285.412C212.423 286.309 211.889 287.141 211.02 287.566L199.317 293.292L201.561 305.203C201.806 306.505 200.844 307.742 199.412 307.965C197.979 308.188 196.619 307.313 196.374 306.011L194.429 295.683L184.283 300.648C183.003 301.274 181.407 300.838 180.719 299.674ZM198.38 288.316L204.006 285.564L197.302 282.59L198.38 288.316Z" fill="url(#paint4_radial_0_1)"/>
<path d="M229.153 292.542L225.031 286.818H228.271L230.773 290.706L233.257 286.818H236.497L232.375 292.542L236.695 298.5H233.437L230.773 294.36L228.091 298.5H224.851L229.153 292.542ZM238.113 286.818H242.793C243.933 286.818 244.833 286.896 245.493 287.052C246.165 287.208 246.651 287.484 246.951 287.88C247.263 288.264 247.419 288.804 247.419 289.5V291.714C247.419 292.482 247.251 293.082 246.915 293.514C246.591 293.946 246.069 294.252 245.349 294.432C244.641 294.612 243.681 294.702 242.469 294.702H240.921V298.5H238.113V286.818ZM242.703 292.776C243.435 292.776 243.951 292.692 244.251 292.524C244.551 292.344 244.701 292.044 244.701 291.624V289.752C244.701 289.368 244.557 289.116 244.269 288.996C243.993 288.876 243.459 288.816 242.667 288.816H240.921V292.776H242.703Z" fill="url(#paint5_linear_0_1)"/>
</g>
<g clip-path="url(#clip1_0_1)">
<rect width="1440" height="1024" transform="translate(592.404 40)" fill="#1F1F1F"/>
<rect width="1440" height="1024" transform="translate(592.404 40)" fill="url(#paint6_linear_0_1)"/>
<path d="M1115.42 396.464H1125.4V430.896H1145.82V438H1115.42V396.464ZM1167.71 438.64C1156.74 438.64 1151.26 435.291 1151.26 428.592V417.456C1151.26 413.573 1152.5 410.757 1154.97 409.008C1157.49 407.259 1161.35 406.384 1166.56 406.384C1171.46 406.384 1175.05 407.237 1177.31 408.944C1179.61 410.608 1180.76 413.445 1180.76 417.456V425.008H1160.67V427.824C1160.67 429.616 1161.31 430.896 1162.59 431.664C1163.87 432.432 1166.17 432.816 1169.5 432.816C1172.57 432.816 1176.03 432.368 1179.87 431.472V437.424C1176.07 438.235 1172.02 438.64 1167.71 438.64ZM1171.87 419.696V415.216C1171.87 414.192 1171.44 413.424 1170.59 412.912C1169.78 412.4 1168.39 412.144 1166.43 412.144C1164.17 412.144 1162.65 412.4 1161.88 412.912C1161.07 413.467 1160.67 414.235 1160.67 415.216V419.696H1171.87ZM1203.39 438.64C1201.82 438.64 1200.49 438.576 1199.43 438.448C1198.36 438.32 1197.29 438.064 1196.23 437.68C1195.03 437.296 1194.05 436.763 1193.28 436.08C1192.56 435.397 1191.96 434.459 1191.49 433.264C1190.98 432.027 1190.72 430.597 1190.72 428.976V412.784H1184.45V407.024H1190.72V398.064H1200.07V407.024H1208.58V412.784H1200.07V427.376C1200.07 428.869 1200.19 430 1200.45 430.768C1200.71 431.493 1201.2 432.027 1201.92 432.368C1202.65 432.667 1203.76 432.816 1205.25 432.816C1205.85 432.816 1206.96 432.709 1208.58 432.496V438.32C1206.57 438.533 1204.85 438.64 1203.39 438.64ZM1215.7 396.464H1225.43L1219.41 410.544H1212.75L1215.7 396.464ZM1241.93 438.64C1238.6 438.64 1234.53 438.32 1229.7 437.68V431.472C1235.63 432.368 1239.75 432.816 1242.06 432.816C1244.02 432.816 1245.47 432.624 1246.41 432.24C1247.35 431.856 1247.82 431.152 1247.82 430.128V428.208C1247.82 427.141 1247.52 426.395 1246.92 425.968C1246.32 425.499 1245.15 425.264 1243.4 425.264H1239.37C1236.08 425.264 1233.54 424.624 1231.75 423.344C1229.96 422.021 1229.06 420.101 1229.06 417.584V413.808C1229.06 411.12 1230.34 409.221 1232.9 408.112C1235.46 406.96 1239.33 406.384 1244.49 406.384C1246.54 406.384 1250.21 406.576 1255.5 406.96V412.912C1248.84 412.4 1245.09 412.144 1244.23 412.144C1241.71 412.144 1240.07 412.315 1239.3 412.656C1238.62 413.04 1238.28 413.744 1238.28 414.768V416.432C1238.28 416.987 1238.56 417.477 1239.11 417.904C1239.67 418.288 1240.48 418.48 1241.54 418.48H1245.64C1253.23 418.48 1257.03 420.955 1257.03 425.904V429.808C1257.03 431.301 1256.75 432.603 1256.2 433.712C1255.65 434.821 1254.92 435.696 1254.02 436.336C1253.17 436.933 1252.06 437.403 1250.7 437.744C1249.37 438.085 1247.99 438.32 1246.54 438.448C1245.21 438.576 1243.68 438.64 1241.93 438.64ZM1278.72 407.024H1287.55V410.096C1288.11 408.731 1289.19 407.771 1290.82 407.216C1292.44 406.661 1294.85 406.384 1298.05 406.384C1300.74 406.384 1302.89 406.597 1304.51 407.024C1306.18 407.451 1307.43 408.133 1308.29 409.072C1309.1 410.011 1309.65 411.056 1309.95 412.208C1310.25 413.317 1310.4 414.853 1310.4 416.816V426.992C1310.4 430.064 1309.95 432.432 1309.06 434.096C1308.16 435.76 1306.77 436.933 1304.9 437.616C1303.06 438.299 1300.54 438.64 1297.34 438.64C1294.27 438.64 1292.05 438.384 1290.69 437.872C1289.32 437.36 1288.45 436.357 1288.06 434.864V451.312H1278.72V407.024ZM1294.46 432.816C1296.3 432.816 1297.68 432.688 1298.62 432.432C1299.56 432.176 1300.2 431.728 1300.54 431.088C1300.88 430.448 1301.06 429.488 1301.06 428.208V416.752C1301.06 415.344 1300.91 414.341 1300.61 413.744C1300.31 413.104 1299.71 412.677 1298.82 412.464C1297.92 412.251 1296.45 412.144 1294.4 412.144C1292.65 412.144 1291.31 412.293 1290.37 412.592C1289.47 412.891 1288.85 413.36 1288.51 414C1288.21 414.64 1288.06 415.557 1288.06 416.752V428.208C1288.06 429.488 1288.21 430.448 1288.51 431.088C1288.85 431.728 1289.47 432.176 1290.37 432.432C1291.26 432.688 1292.63 432.816 1294.46 432.816ZM1317.72 407.024H1326.62V412.464C1326.62 411.483 1327.02 410.523 1327.83 409.584C1328.64 408.645 1329.67 407.877 1330.9 407.28C1332.18 406.683 1333.44 406.384 1334.68 406.384H1338.01V414.128H1334.81C1332.16 414.128 1330.2 414.533 1328.92 415.344C1327.68 416.155 1327.06 417.499 1327.06 419.376V438H1317.72V407.024ZM1358.71 438.64C1347.74 438.64 1342.26 435.291 1342.26 428.592V417.456C1342.26 413.573 1343.5 410.757 1345.97 409.008C1348.49 407.259 1352.35 406.384 1357.56 406.384C1362.46 406.384 1366.05 407.237 1368.31 408.944C1370.61 410.608 1371.76 413.445 1371.76 417.456V425.008H1351.67V427.824C1351.67 429.616 1352.31 430.896 1353.59 431.664C1354.87 432.432 1357.17 432.816 1360.5 432.816C1363.57 432.816 1367.03 432.368 1370.87 431.472V437.424C1367.07 438.235 1363.02 438.64 1358.71 438.64ZM1362.87 419.696V415.216C1362.87 414.192 1362.44 413.424 1361.59 412.912C1360.78 412.4 1359.39 412.144 1357.43 412.144C1355.17 412.144 1353.65 412.4 1352.88 412.912C1352.07 413.467 1351.67 414.235 1351.67 415.216V419.696H1362.87ZM1374.81 407.024H1384.73L1391.51 428.464L1398.04 407.024H1407.45L1396.06 438H1386.59L1374.81 407.024ZM1411.79 395.824H1421.13V403.376H1411.79V395.824ZM1411.79 407.024H1421.13V438H1411.79V407.024ZM1445.15 438.64C1434.18 438.64 1428.7 435.291 1428.7 428.592V417.456C1428.7 413.573 1429.94 410.757 1432.41 409.008C1434.93 407.259 1438.79 406.384 1443.99 406.384C1448.9 406.384 1452.48 407.237 1454.75 408.944C1457.05 410.608 1458.2 413.445 1458.2 417.456V425.008H1438.11V427.824C1438.11 429.616 1438.75 430.896 1440.03 431.664C1441.31 432.432 1443.61 432.816 1446.94 432.816C1450.01 432.816 1453.47 432.368 1457.31 431.472V437.424C1453.51 438.235 1449.46 438.64 1445.15 438.64ZM1449.31 419.696V415.216C1449.31 414.192 1448.88 413.424 1448.03 412.912C1447.22 412.4 1445.83 412.144 1443.87 412.144C1441.6 412.144 1440.09 412.4 1439.32 412.912C1438.51 413.467 1438.11 414.235 1438.11 415.216V419.696H1449.31ZM1461.76 407.024H1471.3L1477.06 429.488L1483.2 407.024H1492.35L1498.75 429.488L1504.26 407.024H1513.34L1503.23 438H1493.76L1487.62 417.072L1481.6 438H1472.13L1461.76 407.024ZM1046.71 511.744L1034.35 481.024H1044.53L1051.51 502.912L1057.84 481.024H1067.51L1050.55 525.312H1041.07L1046.71 511.744ZM1086.97 512.64C1085.05 512.64 1083.47 512.576 1082.24 512.448C1081 512.32 1079.68 512.064 1078.27 511.68C1076.73 511.253 1075.5 510.656 1074.56 509.888C1073.62 509.077 1072.83 507.947 1072.19 506.496C1071.55 505.088 1071.23 503.381 1071.23 501.376V492.224C1071.23 490.176 1071.55 488.384 1072.19 486.848C1072.83 485.312 1073.66 484.117 1074.69 483.264C1075.58 482.539 1076.75 481.941 1078.21 481.472C1079.7 480.96 1081.15 480.64 1082.56 480.512C1084.18 480.427 1085.65 480.384 1086.97 480.384C1088.94 480.384 1090.49 480.448 1091.65 480.576C1092.84 480.661 1094.14 480.917 1095.55 481.344C1097.09 481.813 1098.32 482.453 1099.26 483.264C1100.24 484.075 1101.07 485.227 1101.76 486.72C1102.4 488.256 1102.72 490.091 1102.72 492.224V501.376C1102.72 503.296 1102.4 504.981 1101.76 506.432C1101.16 507.883 1100.37 509.013 1099.39 509.824C1098.54 510.549 1097.36 511.147 1095.87 511.616C1094.42 512.043 1092.99 512.32 1091.58 512.448C1090.3 512.576 1088.77 512.64 1086.97 512.64ZM1086.97 506.816C1088.72 506.816 1090.05 506.688 1090.94 506.432C1091.84 506.133 1092.46 505.685 1092.8 505.088C1093.18 504.491 1093.37 503.616 1093.37 502.464V490.752C1093.37 489.045 1092.93 487.851 1092.03 487.168C1091.13 486.485 1089.45 486.144 1086.97 486.144C1084.5 486.144 1082.81 486.485 1081.92 487.168C1081.02 487.851 1080.57 489.045 1080.57 490.752V502.464C1080.57 503.616 1080.74 504.491 1081.09 505.088C1081.47 505.685 1082.11 506.133 1083.01 506.432C1083.9 506.688 1085.22 506.816 1086.97 506.816ZM1120.75 512.64C1116.78 512.64 1113.99 511.936 1112.37 510.528C1110.79 509.077 1110 506.816 1110 503.744V481.024H1119.34V502.464C1119.34 503.659 1119.45 504.555 1119.66 505.152C1119.92 505.749 1120.39 506.176 1121.07 506.432C1121.8 506.688 1122.89 506.816 1124.34 506.816C1126.17 506.816 1127.51 506.709 1128.37 506.496C1129.22 506.24 1129.8 505.813 1130.1 505.216C1130.39 504.619 1130.54 503.701 1130.54 502.464V481.024H1139.89V512H1130.67V508.224C1129.99 511.168 1126.68 512.64 1120.75 512.64ZM1148.06 481.024H1156.96V486.464C1156.96 485.483 1157.36 484.523 1158.17 483.584C1158.99 482.645 1160.01 481.877 1161.25 481.28C1162.53 480.683 1163.79 480.384 1165.02 480.384H1168.35V488.128H1165.15C1162.51 488.128 1160.54 488.533 1159.26 489.344C1158.03 490.155 1157.41 491.499 1157.41 493.376V512H1148.06V481.024ZM1190.62 486.784H1184.79V481.024H1190.62V476.352C1190.62 473.835 1191.02 471.872 1191.83 470.464C1192.69 469.013 1193.97 468.011 1195.67 467.456C1197.42 466.859 1199.75 466.56 1202.65 466.56C1204.1 466.56 1205.94 466.667 1208.15 466.88V472.64C1206.32 472.427 1204.98 472.32 1204.12 472.32C1202.54 472.32 1201.46 472.576 1200.86 473.088C1200.26 473.557 1199.96 474.475 1199.96 475.84V481.024H1207.83V486.784H1199.96V512H1190.62V486.784ZM1211.16 467.2H1220.51V474.752H1211.16V467.2ZM1211.16 481.024H1220.51V512H1211.16V481.024ZM1229.19 467.2H1238.54V512H1229.19V467.2ZM1262.55 512.64C1251.59 512.64 1246.1 509.291 1246.1 502.592V491.456C1246.1 487.573 1247.34 484.757 1249.82 483.008C1252.33 481.259 1256.19 480.384 1261.4 480.384C1266.31 480.384 1269.89 481.237 1272.15 482.944C1274.46 484.608 1275.61 487.445 1275.61 491.456V499.008H1255.51V501.824C1255.51 503.616 1256.15 504.896 1257.43 505.664C1258.71 506.432 1261.02 506.816 1264.34 506.816C1267.42 506.816 1270.87 506.368 1274.71 505.472V511.424C1270.91 512.235 1266.86 512.64 1262.55 512.64ZM1266.71 493.696V489.216C1266.71 488.192 1266.29 487.424 1265.43 486.912C1264.62 486.4 1263.23 486.144 1261.27 486.144C1259.01 486.144 1257.5 486.4 1256.73 486.912C1255.92 487.467 1255.51 488.235 1255.51 489.216V493.696H1266.71ZM1294.33 512.64C1291.01 512.64 1286.93 512.32 1282.11 511.68V505.472C1288.04 506.368 1292.16 506.816 1294.46 506.816C1296.42 506.816 1297.88 506.624 1298.81 506.24C1299.75 505.856 1300.22 505.152 1300.22 504.128V502.208C1300.22 501.141 1299.92 500.395 1299.33 499.968C1298.73 499.499 1297.56 499.264 1295.81 499.264H1291.77C1288.49 499.264 1285.95 498.624 1284.16 497.344C1282.37 496.021 1281.47 494.101 1281.47 491.584V487.808C1281.47 485.12 1282.75 483.221 1285.31 482.112C1287.87 480.96 1291.73 480.384 1296.89 480.384C1298.94 480.384 1302.61 480.576 1307.9 480.96V486.912C1301.25 486.4 1297.49 486.144 1296.64 486.144C1294.12 486.144 1292.48 486.315 1291.71 486.656C1291.03 487.04 1290.69 487.744 1290.69 488.768V490.432C1290.69 490.987 1290.96 491.477 1291.52 491.904C1292.07 492.288 1292.88 492.48 1293.95 492.48H1298.05C1305.64 492.48 1309.44 494.955 1309.44 499.904V503.808C1309.44 505.301 1309.16 506.603 1308.61 507.712C1308.05 508.821 1307.33 509.696 1306.43 510.336C1305.58 510.933 1304.47 511.403 1303.1 511.744C1301.78 512.085 1300.39 512.32 1298.94 512.448C1297.62 512.576 1296.08 512.64 1294.33 512.64ZM1346.61 512.64C1345.03 512.64 1343.71 512.576 1342.65 512.448C1341.58 512.32 1340.51 512.064 1339.45 511.68C1338.25 511.296 1337.27 510.763 1336.5 510.08C1335.78 509.397 1335.18 508.459 1334.71 507.264C1334.2 506.027 1333.94 504.597 1333.94 502.976V486.784H1327.67V481.024H1333.94V472.064H1343.29V481.024H1351.8V486.784H1343.29V501.376C1343.29 502.869 1343.41 504 1343.67 504.768C1343.93 505.493 1344.42 506.027 1345.14 506.368C1345.87 506.667 1346.98 506.816 1348.47 506.816C1349.07 506.816 1350.18 506.709 1351.8 506.496V512.32C1349.79 512.533 1348.06 512.64 1346.61 512.64ZM1372.04 512.64C1370.12 512.64 1368.54 512.576 1367.3 512.448C1366.06 512.32 1364.74 512.064 1363.33 511.68C1361.8 511.253 1360.56 510.656 1359.62 509.888C1358.68 509.077 1357.89 507.947 1357.25 506.496C1356.61 505.088 1356.29 503.381 1356.29 501.376V492.224C1356.29 490.176 1356.61 488.384 1357.25 486.848C1357.89 485.312 1358.72 484.117 1359.75 483.264C1360.64 482.539 1361.82 481.941 1363.27 481.472C1364.76 480.96 1366.21 480.64 1367.62 480.512C1369.24 480.427 1370.71 480.384 1372.04 480.384C1374 480.384 1375.56 480.448 1376.71 480.576C1377.9 480.661 1379.2 480.917 1380.61 481.344C1382.15 481.813 1383.39 482.453 1384.32 483.264C1385.31 484.075 1386.14 485.227 1386.82 486.72C1387.46 488.256 1387.78 490.091 1387.78 492.224V501.376C1387.78 503.296 1387.46 504.981 1386.82 506.432C1386.22 507.883 1385.43 509.013 1384.45 509.824C1383.6 510.549 1382.43 511.147 1380.93 511.616C1379.48 512.043 1378.05 512.32 1376.64 512.448C1375.36 512.576 1373.83 512.64 1372.04 512.64ZM1372.04 506.816C1373.79 506.816 1375.11 506.688 1376 506.432C1376.9 506.133 1377.52 505.685 1377.86 505.088C1378.24 504.491 1378.44 503.616 1378.44 502.464V490.752C1378.44 489.045 1377.99 487.851 1377.09 487.168C1376.2 486.485 1374.51 486.144 1372.04 486.144C1369.56 486.144 1367.88 486.485 1366.98 487.168C1366.08 487.851 1365.64 489.045 1365.64 490.752V502.464C1365.64 503.616 1365.81 504.491 1366.15 505.088C1366.53 505.685 1367.17 506.133 1368.07 506.432C1368.96 506.688 1370.29 506.816 1372.04 506.816ZM1407.61 526.08C1402.57 526.08 1398.84 525.931 1396.41 525.632V519.36C1400.42 519.915 1404.15 520.192 1407.61 520.192C1410.76 520.192 1413.03 519.68 1414.39 518.656C1415.76 517.632 1416.44 515.925 1416.44 513.536V508.544C1415.67 509.653 1414.92 510.507 1414.2 511.104C1413.47 511.659 1412.51 512.043 1411.32 512.256C1410.17 512.512 1408.57 512.64 1406.52 512.64C1403.49 512.64 1401.08 512.363 1399.29 511.808C1397.49 511.211 1396.19 510.251 1395.38 508.928C1394.57 507.563 1394.17 505.685 1394.17 503.296V491.2C1394.17 488.341 1394.53 486.144 1395.25 484.608C1396.02 483.072 1397.3 481.984 1399.09 481.344C1400.93 480.704 1403.55 480.384 1406.97 480.384C1409.19 480.384 1410.89 480.512 1412.09 480.768C1413.24 481.024 1414.11 481.408 1414.71 481.92C1415.31 482.432 1415.99 483.307 1416.76 484.544V481.024H1425.78V513.664C1425.78 518.059 1424.27 521.216 1421.24 523.136C1418.25 525.099 1413.71 526.08 1407.61 526.08ZM1409.85 506.816C1411.68 506.816 1413.05 506.688 1413.94 506.432C1414.88 506.176 1415.52 505.771 1415.86 505.216C1416.25 504.619 1416.44 503.787 1416.44 502.72V490.24C1416.44 489.088 1416.27 488.235 1415.93 487.68C1415.59 487.083 1414.92 486.677 1413.94 486.464C1412.96 486.251 1411.43 486.144 1409.33 486.144C1407.63 486.144 1406.37 486.272 1405.56 486.528C1404.75 486.784 1404.19 487.232 1403.89 487.872C1403.64 488.469 1403.51 489.365 1403.51 490.56V502.4C1403.51 503.723 1403.64 504.683 1403.89 505.28C1404.19 505.835 1404.77 506.24 1405.62 506.496C1406.48 506.709 1407.88 506.816 1409.85 506.816ZM1449.55 512.64C1438.59 512.64 1433.1 509.291 1433.1 502.592V491.456C1433.1 487.573 1434.34 484.757 1436.82 483.008C1439.33 481.259 1443.19 480.384 1448.4 480.384C1453.31 480.384 1456.89 481.237 1459.15 482.944C1461.46 484.608 1462.61 487.445 1462.61 491.456V499.008H1442.51V501.824C1442.51 503.616 1443.15 504.896 1444.43 505.664C1445.71 506.432 1448.02 506.816 1451.34 506.816C1454.42 506.816 1457.87 506.368 1461.71 505.472V511.424C1457.91 512.235 1453.86 512.64 1449.55 512.64ZM1453.71 493.696V489.216C1453.71 488.192 1453.29 487.424 1452.43 486.912C1451.62 486.4 1450.23 486.144 1448.27 486.144C1446.01 486.144 1444.5 486.4 1443.73 486.912C1442.92 487.467 1442.51 488.235 1442.51 489.216V493.696H1453.71ZM1485.24 512.64C1483.66 512.64 1482.34 512.576 1481.27 512.448C1480.2 512.32 1479.14 512.064 1478.07 511.68C1476.88 511.296 1475.89 510.763 1475.13 510.08C1474.4 509.397 1473.8 508.459 1473.33 507.264C1472.82 506.027 1472.57 504.597 1472.57 502.976V486.784H1466.29V481.024H1472.57V472.064H1481.91V481.024H1490.42V486.784H1481.91V501.376C1481.91 502.869 1482.04 504 1482.29 504.768C1482.55 505.493 1483.04 506.027 1483.77 506.368C1484.49 506.667 1485.6 506.816 1487.09 506.816C1487.69 506.816 1488.8 506.709 1490.42 506.496V512.32C1488.42 512.533 1486.69 512.64 1485.24 512.64ZM1495.81 467.2H1505.16V484.8C1505.75 481.856 1509.02 480.384 1514.95 480.384C1518.92 480.384 1521.69 481.109 1523.27 482.56C1524.89 483.968 1525.7 486.208 1525.7 489.28V512H1516.36V490.368C1516.36 489.173 1516.23 488.299 1515.97 487.744C1515.76 487.147 1515.31 486.741 1514.63 486.528C1513.95 486.272 1512.86 486.144 1511.36 486.144C1509.53 486.144 1508.19 486.251 1507.33 486.464C1506.48 486.677 1505.9 487.083 1505.6 487.68C1505.31 488.235 1505.16 489.131 1505.16 490.368V512H1495.81V467.2ZM1549.43 512.64C1538.46 512.64 1532.98 509.291 1532.98 502.592V491.456C1532.98 487.573 1534.22 484.757 1536.69 483.008C1539.21 481.259 1543.07 480.384 1548.28 480.384C1553.18 480.384 1556.77 481.237 1559.03 482.944C1561.33 484.608 1562.48 487.445 1562.48 491.456V499.008H1542.39V501.824C1542.39 503.616 1543.03 504.896 1544.31 505.664C1545.59 506.432 1547.89 506.816 1551.22 506.816C1554.29 506.816 1557.75 506.368 1561.59 505.472V511.424C1557.79 512.235 1553.74 512.64 1549.43 512.64ZM1553.59 493.696V489.216C1553.59 488.192 1553.16 487.424 1552.31 486.912C1551.5 486.4 1550.11 486.144 1548.15 486.144C1545.89 486.144 1544.37 486.4 1543.6 486.912C1542.79 487.467 1542.39 488.235 1542.39 489.216V493.696H1553.59ZM1569.63 481.024H1578.52V486.464C1578.52 485.483 1578.93 484.523 1579.74 483.584C1580.55 482.645 1581.57 481.877 1582.81 481.28C1584.09 480.683 1585.35 480.384 1586.59 480.384H1589.91V488.128H1586.71C1584.07 488.128 1582.11 488.533 1580.83 489.344C1579.59 490.155 1578.97 491.499 1578.97 493.376V512H1569.63V481.024Z" fill="url(#paint7_linear_0_1)"/>
<path d="M1333.77 695.524C1337.19 695.524 1339.88 698.206 1339.88 701.619C1339.88 705.032 1337.19 707.714 1333.77 707.714C1330.35 707.714 1327.67 705.032 1327.67 701.619C1327.67 698.206 1330.35 695.524 1333.77 695.524ZM1333.77 677.238C1317.11 677.238 1302.88 687.356 1297.14 701.619C1302.88 715.882 1317.11 726 1333.77 726C1350.44 726 1364.67 715.882 1370.4 701.619C1364.67 687.356 1350.44 677.238 1333.77 677.238ZM1333.77 716.857C1329.72 716.857 1325.84 715.252 1322.98 712.394C1320.12 709.536 1318.51 705.66 1318.51 701.619C1318.51 697.578 1320.12 693.702 1322.98 690.844C1325.84 687.986 1329.72 686.381 1333.77 686.381C1337.82 686.381 1341.7 687.986 1344.57 690.844C1347.43 693.702 1349.04 697.578 1349.04 701.619C1349.04 705.66 1347.43 709.536 1344.57 712.394C1341.7 715.252 1337.82 716.857 1333.77 716.857ZM1286.58 707.714H1266.61V610.19H1309.35V640.667H1339.88V665.474C1344.15 665.962 1348.18 666.998 1352.09 668.461V634.571L1315.46 598H1266.61C1263.38 598 1260.27 599.284 1257.98 601.571C1255.69 603.857 1254.4 606.957 1254.4 610.19V707.714C1254.4 710.947 1255.69 714.048 1257.98 716.334C1260.27 718.62 1263.38 719.905 1266.61 719.905H1294.09C1291.04 716.309 1288.53 712.164 1286.58 707.714Z" fill="url(#paint8_linear_0_1)"/>
<path fill-rule="evenodd" clip-rule="evenodd" d="M616.629 111.348C615.252 109.021 616.211 106.119 618.77 104.867L642.175 93.4157L637.688 69.5935C637.355 67.8239 638.138 66.0336 639.718 64.9566C641.297 63.8797 643.407 63.6973 645.181 64.4844L677.045 78.6171C678.819 79.4041 679.96 81.0281 679.999 82.8231C680.038 84.6181 678.969 86.282 677.231 87.1326L653.826 98.5835L658.313 122.406C658.804 125.011 656.879 127.484 654.015 127.931C651.15 128.377 648.43 126.627 647.94 124.022L644.049 103.367L623.756 113.295C621.197 114.547 618.006 113.676 616.629 111.348ZM651.952 88.6324L663.204 83.127L649.794 77.1792L651.952 88.6324Z" fill="url(#paint9_radial_0_1)"/>
<path d="M712.109 96.908L704.781 86.732H710.541L714.989 93.644L719.405 86.732H725.165L717.837 96.908L725.517 107.5H719.725L714.989 100.14L710.221 107.5H704.461L712.109 96.908ZM728.037 86.732H736.357C738.384 86.732 739.984 86.8707 741.157 87.148C742.352 87.4253 743.216 87.916 743.749 88.62C744.304 89.3027 744.581 90.2627 744.581 91.5V95.436C744.581 96.8013 744.282 97.868 743.685 98.636C743.109 99.404 742.181 99.948 740.901 100.268C739.642 100.588 737.936 100.748 735.781 100.748H733.029V107.5H728.037V86.732ZM736.197 97.324C737.498 97.324 738.416 97.1747 738.949 96.876C739.482 96.556 739.749 96.0227 739.749 95.276V91.948C739.749 91.2653 739.493 90.8173 738.981 90.604C738.49 90.3907 737.541 90.284 736.133 90.284H733.029V97.324H736.197Z" fill="url(#paint10_linear_0_1)"/>
<path d="M918 86C912.489 86 908 90.489 908 96C908 101.511 912.489 106 918 106C923.511 106 928 101.511 928 96C928 90.489 923.511 86 918 86ZM918 88C922.43 88 926 91.5699 926 96C926 100.43 922.43 104 918 104C913.57 104 910 100.43 910 96C910 91.5699 913.57 88 918 88ZM917 91V93H919V91H917ZM917 95V101H919V95H917Z" fill="#998FA3"/>
<path d="M941.28 102H936.528V100.832L937.84 100.32V92.272L936.528 91.744V90.576H941.28V91.744L939.984 92.272V100.32L941.28 100.832V102ZM947.54 93.168C948.447 93.168 949.161 93.4187 949.684 93.92C950.207 94.4213 950.468 95.232 950.468 96.352V102H948.34V96.752C948.34 96.1013 948.228 95.616 948.004 95.296C947.78 94.9653 947.428 94.8 946.948 94.8C946.233 94.8 945.748 95.056 945.492 95.568C945.236 96.0693 945.108 96.8 945.108 97.76V102H942.98V93.328H944.612L944.916 94.464H944.996C945.188 94.1653 945.412 93.92 945.668 93.728C945.924 93.536 946.212 93.3973 946.532 93.312C946.852 93.216 947.188 93.168 947.54 93.168ZM957.162 94.848H955.242V102H953.114V94.848H951.866V93.888L953.13 93.312V92.72C953.13 91.9733 953.237 91.3867 953.45 90.96C953.663 90.5333 953.978 90.2293 954.394 90.048C954.81 89.856 955.317 89.76 955.914 89.76C956.309 89.76 956.666 89.7973 956.986 89.872C957.317 89.936 957.61 90.0107 957.866 90.096L957.354 91.6C957.194 91.5467 957.013 91.4987 956.81 91.456C956.618 91.4027 956.415 91.376 956.202 91.376C955.871 91.376 955.626 91.4987 955.466 91.744C955.317 91.9893 955.242 92.3307 955.242 92.768V93.328H957.162V94.848ZM965.905 97.648C965.905 98.3733 965.814 99.0133 965.633 99.568C965.452 100.123 965.185 100.597 964.833 100.992C964.492 101.376 964.076 101.669 963.585 101.872C963.094 102.064 962.545 102.16 961.937 102.16C961.372 102.16 960.844 102.064 960.353 101.872C959.873 101.669 959.457 101.376 959.105 100.992C958.764 100.597 958.497 100.123 958.305 99.568C958.113 99.0133 958.017 98.3733 958.017 97.648C958.017 96.688 958.172 95.8773 958.481 95.216C958.801 94.544 959.26 94.0373 959.857 93.696C960.454 93.344 961.164 93.168 961.985 93.168C962.753 93.168 963.43 93.344 964.017 93.696C964.604 94.0373 965.062 94.544 965.393 95.216C965.734 95.8773 965.905 96.688 965.905 97.648ZM960.177 97.648C960.177 98.256 960.241 98.7787 960.369 99.216C960.497 99.6427 960.689 99.968 960.945 100.192C961.212 100.416 961.553 100.528 961.969 100.528C962.385 100.528 962.721 100.416 962.977 100.192C963.244 99.968 963.436 99.6427 963.553 99.216C963.681 98.7787 963.745 98.256 963.745 97.648C963.745 97.0293 963.681 96.512 963.553 96.096C963.425 95.6693 963.228 95.3493 962.961 95.136C962.705 94.912 962.369 94.8 961.953 94.8C961.324 94.8 960.87 95.0453 960.593 95.536C960.316 96.0267 960.177 96.7307 960.177 97.648Z" fill="#998FA3"/>
<path d="M1005 86C1003.91 86 1003 86.9057 1003 88V104C1003 105.094 1003.91 106 1005 106H1017C1018.09 106 1019 105.094 1019 104V92L1013 86H1005ZM1005 88H1012V93H1017V104H1005V88ZM1007 96V98H1015V96H1007ZM1007 100V102H1015V100H1007Z" fill="#998FA3"/>
<path d="M1034.68 95.728H1038.86V101.536C1038.29 101.739 1037.69 101.893 1037.05 102C1036.42 102.107 1035.73 102.16 1034.97 102.16C1033.89 102.16 1032.97 101.931 1032.2 101.472C1031.44 101.013 1030.86 100.347 1030.46 99.472C1030.05 98.5973 1029.85 97.5307 1029.85 96.272C1029.85 95.0773 1030.07 94.0427 1030.5 93.168C1030.94 92.2933 1031.58 91.616 1032.41 91.136C1033.24 90.656 1034.26 90.416 1035.46 90.416C1036.07 90.416 1036.65 90.48 1037.21 90.608C1037.77 90.7253 1038.29 90.8907 1038.74 91.104L1038.02 92.784C1037.65 92.6027 1037.25 92.4533 1036.81 92.336C1036.38 92.208 1035.92 92.144 1035.43 92.144C1034.71 92.144 1034.09 92.3147 1033.59 92.656C1033.1 92.9973 1032.72 93.4827 1032.46 94.112C1032.2 94.7307 1032.07 95.4613 1032.07 96.304C1032.07 97.1147 1032.18 97.8347 1032.41 98.464C1032.63 99.0827 1032.97 99.568 1033.42 99.92C1033.87 100.261 1034.47 100.432 1035.19 100.432C1035.42 100.432 1035.62 100.421 1035.82 100.4C1036.01 100.379 1036.18 100.352 1036.34 100.32C1036.51 100.288 1036.66 100.256 1036.79 100.224V97.472H1034.68V95.728ZM1048.54 93.328V102H1046.91L1046.64 100.88H1046.53C1046.36 101.179 1046.14 101.424 1045.87 101.616C1045.61 101.797 1045.31 101.931 1044.99 102.016C1044.67 102.112 1044.34 102.16 1044 102.16C1043.4 102.16 1042.89 102.048 1042.45 101.824C1042.01 101.6 1041.67 101.259 1041.42 100.8C1041.19 100.331 1041.07 99.728 1041.07 98.992V93.328H1043.2V98.592C1043.2 99.232 1043.31 99.7173 1043.52 100.048C1043.74 100.368 1044.1 100.528 1044.58 100.528C1045.06 100.528 1045.43 100.416 1045.7 100.192C1045.97 99.9573 1046.17 99.6213 1046.27 99.184C1046.38 98.7467 1046.43 98.208 1046.43 97.568V93.328H1048.54ZM1053 93.328V102H1050.89V93.328H1053ZM1051.96 89.984C1052.27 89.984 1052.53 90.064 1052.76 90.224C1052.98 90.3733 1053.09 90.6453 1053.09 91.04C1053.09 91.424 1052.98 91.7013 1052.76 91.872C1052.53 92.032 1052.27 92.112 1051.96 92.112C1051.63 92.112 1051.35 92.032 1051.13 91.872C1050.9 91.7013 1050.79 91.424 1050.79 91.04C1050.79 90.6453 1050.9 90.3733 1051.13 90.224C1051.35 90.064 1051.63 89.984 1051.96 89.984ZM1058 102.16C1057.07 102.16 1056.32 101.787 1055.74 101.04C1055.16 100.283 1054.88 99.1627 1054.88 97.68C1054.88 96.1973 1055.17 95.0773 1055.76 94.32C1056.34 93.552 1057.11 93.168 1058.06 93.168C1058.45 93.168 1058.8 93.2267 1059.08 93.344C1059.38 93.4507 1059.64 93.6 1059.85 93.792C1060.07 93.984 1060.25 94.1973 1060.41 94.432H1060.48C1060.45 94.2827 1060.43 94.0533 1060.4 93.744C1060.36 93.4347 1060.35 93.1467 1060.35 92.88V89.84H1062.48V102H1060.84L1060.44 100.864H1060.35C1060.21 101.099 1060.03 101.317 1059.82 101.52C1059.61 101.712 1059.35 101.867 1059.05 101.984C1058.75 102.101 1058.4 102.16 1058 102.16ZM1058.7 100.528C1059.35 100.528 1059.81 100.315 1060.08 99.888C1060.34 99.4613 1060.48 98.816 1060.48 97.952V97.696C1060.48 96.7573 1060.35 96.0427 1060.09 95.552C1059.84 95.0613 1059.37 94.816 1058.68 94.816C1058.15 94.816 1057.74 95.072 1057.45 95.584C1057.17 96.0853 1057.04 96.7947 1057.04 97.712C1057.04 98.6293 1057.18 99.328 1057.47 99.808C1057.76 100.288 1058.17 100.528 1058.7 100.528ZM1068.19 93.168C1068.93 93.168 1069.57 93.328 1070.11 93.648C1070.65 93.9573 1071.07 94.4053 1071.37 94.992C1071.67 95.568 1071.82 96.272 1071.82 97.104V98.128H1066.51C1066.53 98.9173 1066.72 99.5307 1067.08 99.968C1067.45 100.395 1067.98 100.608 1068.65 100.608C1069.18 100.608 1069.66 100.555 1070.07 100.448C1070.49 100.331 1070.92 100.165 1071.37 99.952V101.568C1070.96 101.771 1070.54 101.92 1070.11 102.016C1069.67 102.112 1069.13 102.16 1068.49 102.16C1067.68 102.16 1066.96 102 1066.33 101.68C1065.71 101.349 1065.23 100.853 1064.87 100.192C1064.52 99.5307 1064.35 98.7093 1064.35 97.728C1064.35 96.736 1064.51 95.904 1064.83 95.232C1065.15 94.5493 1065.59 94.0373 1066.17 93.696C1066.76 93.344 1067.43 93.168 1068.19 93.168ZM1068.22 94.656C1067.74 94.656 1067.35 94.832 1067.05 95.184C1066.76 95.5253 1066.59 96.0373 1066.54 96.72H1069.8C1069.8 96.3147 1069.74 95.9573 1069.63 95.648C1069.51 95.3387 1069.33 95.0987 1069.1 94.928C1068.87 94.7467 1068.58 94.656 1068.22 94.656Z" fill="#998FA3"/>
</g>
<rect x="40.4043" y="4" width="97.3594" height="30" rx="3" fill="#404040"/>
<rect x="40.9043" y="4.5" width="96.3594" height="29" rx="2.5" stroke="black" stroke-opacity="0.14902"/>
<path d="M47.8418 14L49.9043 17.3281H49.9668L52.0293 14H53.1699L50.6543 18L53.1699 22H52.0293L49.9668 18.7344H49.9043L47.8418 22H46.7012L49.2793 18L46.7012 14H47.8418ZM54.4307 22V14H57.1338C57.7614 14 58.2744 14.1133 58.6729 14.3398C59.0739 14.5638 59.3708 14.8672 59.5635 15.25C59.7562 15.6328 59.8525 16.0599 59.8525 16.5312C59.8525 17.0026 59.7562 17.431 59.5635 17.8164C59.3734 18.2018 59.0791 18.5091 58.6807 18.7383C58.2822 18.9648 57.7718 19.0781 57.1494 19.0781H55.2119V18.2188H57.1182C57.5479 18.2188 57.8929 18.1445 58.1533 17.9961C58.4137 17.8477 58.6025 17.6471 58.7197 17.3945C58.8395 17.1393 58.8994 16.8516 58.8994 16.5312C58.8994 16.2109 58.8395 15.9245 58.7197 15.6719C58.6025 15.4193 58.4124 15.2214 58.1494 15.0781C57.8864 14.9323 57.5374 14.8594 57.1025 14.8594H55.3994V22H54.4307ZM67.8193 17.5703V18.4297H64.3193V17.5703H67.8193ZM72.6602 22V14H73.6289V17.5625H77.8945V14H78.8633V22H77.8945V18.4219H73.6289V22H72.6602ZM83.1152 22.125C82.5736 22.125 82.0983 21.9961 81.6895 21.7383C81.2832 21.4805 80.9655 21.1198 80.7363 20.6562C80.5098 20.1927 80.3965 19.651 80.3965 19.0312C80.3965 18.4062 80.5098 17.8607 80.7363 17.3945C80.9655 16.9284 81.2832 16.5664 81.6895 16.3086C82.0983 16.0508 82.5736 15.9219 83.1152 15.9219C83.6569 15.9219 84.1309 16.0508 84.5371 16.3086C84.946 16.5664 85.2637 16.9284 85.4902 17.3945C85.7194 17.8607 85.834 18.4062 85.834 19.0312C85.834 19.651 85.7194 20.1927 85.4902 20.6562C85.2637 21.1198 84.946 21.4805 84.5371 21.7383C84.1309 21.9961 83.6569 22.125 83.1152 22.125ZM83.1152 21.2969C83.5267 21.2969 83.8652 21.1914 84.1309 20.9805C84.3965 20.7695 84.5931 20.4922 84.7207 20.1484C84.8483 19.8047 84.9121 19.4323 84.9121 19.0312C84.9121 18.6302 84.8483 18.2565 84.7207 17.9102C84.5931 17.5638 84.3965 17.2839 84.1309 17.0703C83.8652 16.8568 83.5267 16.75 83.1152 16.75C82.7038 16.75 82.3652 16.8568 82.0996 17.0703C81.834 17.2839 81.6374 17.5638 81.5098 17.9102C81.3822 18.2565 81.3184 18.6302 81.3184 19.0312C81.3184 19.4323 81.3822 19.8047 81.5098 20.1484C81.6374 20.4922 81.834 20.7695 82.0996 20.9805C82.3652 21.1914 82.7038 21.2969 83.1152 21.2969ZM87.2412 22V16H88.1318V16.9375H88.21C88.335 16.6172 88.5368 16.3685 88.8154 16.1914C89.0941 16.0117 89.4287 15.9219 89.8193 15.9219C90.2152 15.9219 90.5446 16.0117 90.8076 16.1914C91.0732 16.3685 91.2803 16.6172 91.4287 16.9375H91.4912C91.6449 16.6276 91.8753 16.3815 92.1826 16.1992C92.4899 16.0143 92.8584 15.9219 93.2881 15.9219C93.8245 15.9219 94.2633 16.0898 94.6045 16.4258C94.9456 16.7591 95.1162 17.2786 95.1162 17.9844V22H94.1943V17.9844C94.1943 17.5417 94.0732 17.2253 93.8311 17.0352C93.5889 16.8451 93.3037 16.75 92.9756 16.75C92.5537 16.75 92.2269 16.8776 91.9951 17.1328C91.7633 17.3854 91.6475 17.7057 91.6475 18.0937V22H90.71V17.8906C90.71 17.5495 90.5993 17.2747 90.3779 17.0664C90.1566 16.8555 89.8714 16.75 89.5225 16.75C89.2829 16.75 89.0589 16.8138 88.8506 16.9414C88.6449 17.069 88.4782 17.2461 88.3506 17.4727C88.2256 17.6966 88.1631 17.9557 88.1631 18.25V22H87.2412ZM99.3174 22.125C98.7393 22.125 98.2406 21.9974 97.8213 21.7422C97.4046 21.4844 97.083 21.125 96.8564 20.6641C96.6325 20.2005 96.5205 19.6615 96.5205 19.0469C96.5205 18.4323 96.6325 17.8906 96.8564 17.4219C97.083 16.9505 97.3981 16.5833 97.8018 16.3203C98.208 16.0547 98.682 15.9219 99.2236 15.9219C99.5361 15.9219 99.8447 15.974 100.149 16.0781C100.454 16.1823 100.731 16.3516 100.981 16.5859C101.231 16.8177 101.431 17.125 101.579 17.5078C101.728 17.8906 101.802 18.362 101.802 18.9219V19.3125H97.1768V18.5156H100.864C100.864 18.1771 100.797 17.875 100.661 17.6094C100.528 17.3437 100.338 17.1341 100.091 16.9805C99.846 16.8268 99.557 16.75 99.2236 16.75C98.8564 16.75 98.5387 16.8411 98.2705 17.0234C98.0049 17.2031 97.8005 17.4375 97.6572 17.7266C97.514 18.0156 97.4424 18.3255 97.4424 18.6562V19.1875C97.4424 19.6406 97.5205 20.0247 97.6768 20.3398C97.8356 20.6523 98.0557 20.8906 98.3369 21.0547C98.6182 21.2161 98.945 21.2969 99.3174 21.2969C99.5596 21.2969 99.7783 21.263 99.9736 21.1953C100.172 21.125 100.342 21.0208 100.485 20.8828C100.629 20.7422 100.739 20.5677 100.817 20.3594L101.708 20.6094C101.614 20.9115 101.457 21.1771 101.235 21.4062C101.014 21.6328 100.741 21.8099 100.415 21.9375C100.09 22.0625 99.7236 22.125 99.3174 22.125ZM106.423 22V14H109.126C109.754 14 110.267 14.1133 110.665 14.3398C111.066 14.5638 111.363 14.8672 111.556 15.25C111.748 15.6328 111.845 16.0599 111.845 16.5312C111.845 17.0026 111.748 17.431 111.556 17.8164C111.366 18.2018 111.071 18.5091 110.673 18.7383C110.274 18.9648 109.764 19.0781 109.142 19.0781H107.204V18.2188H109.11C109.54 18.2188 109.885 18.1445 110.146 17.9961C110.406 17.8477 110.595 17.6471 110.712 17.3945C110.832 17.1393 110.892 16.8516 110.892 16.5312C110.892 16.2109 110.832 15.9245 110.712 15.6719C110.595 15.4193 110.405 15.2214 110.142 15.0781C109.879 14.9323 109.53 14.8594 109.095 14.8594H107.392V22H106.423ZM115.046 22.1406C114.666 22.1406 114.321 22.069 114.011 21.9258C113.701 21.7799 113.455 21.5703 113.272 21.2969C113.09 21.0208 112.999 20.6875 112.999 20.2969C112.999 19.9531 113.067 19.6745 113.202 19.4609C113.338 19.2448 113.519 19.0755 113.745 18.9531C113.972 18.8307 114.222 18.7396 114.495 18.6797C114.771 18.6172 115.049 18.5677 115.327 18.5313C115.692 18.4844 115.987 18.4492 116.214 18.4258C116.443 18.3997 116.61 18.3568 116.714 18.2969C116.821 18.237 116.874 18.1328 116.874 17.9844V17.9531C116.874 17.5677 116.769 17.2682 116.558 17.0547C116.349 16.8411 116.033 16.7344 115.608 16.7344C115.168 16.7344 114.823 16.8307 114.573 17.0234C114.323 17.2161 114.147 17.4219 114.046 17.6406L113.171 17.3281C113.327 16.9635 113.535 16.6797 113.796 16.4766C114.059 16.2708 114.345 16.1276 114.655 16.0469C114.968 15.9635 115.275 15.9219 115.577 15.9219C115.77 15.9219 115.991 15.9453 116.241 15.9922C116.494 16.0365 116.737 16.1289 116.972 16.2695C117.209 16.4102 117.405 16.6224 117.562 16.9062C117.718 17.1901 117.796 17.5703 117.796 18.0469V22H116.874V21.1875H116.827C116.765 21.3177 116.66 21.457 116.515 21.6055C116.369 21.7539 116.175 21.8802 115.933 21.9844C115.69 22.0885 115.395 22.1406 115.046 22.1406ZM115.187 21.3125C115.551 21.3125 115.858 21.2409 116.108 21.0977C116.361 20.9544 116.551 20.7695 116.679 20.543C116.809 20.3164 116.874 20.0781 116.874 19.8281V18.9844C116.835 19.0312 116.749 19.0742 116.616 19.1133C116.486 19.1497 116.335 19.1823 116.163 19.2109C115.994 19.237 115.828 19.2604 115.667 19.2812C115.508 19.2995 115.379 19.3151 115.28 19.3281C115.041 19.3594 114.817 19.4102 114.608 19.4805C114.403 19.5482 114.236 19.651 114.108 19.7891C113.983 19.9245 113.921 20.1094 113.921 20.3437C113.921 20.6641 114.039 20.9062 114.276 21.0703C114.516 21.2318 114.819 21.3125 115.187 21.3125ZM121.9 24.375C121.455 24.375 121.072 24.3177 120.752 24.2031C120.432 24.0911 120.165 23.9427 119.951 23.7578C119.74 23.5755 119.572 23.3802 119.447 23.1719L120.182 22.6563C120.265 22.7656 120.37 22.8906 120.498 23.0312C120.626 23.1745 120.8 23.2982 121.021 23.4023C121.245 23.5091 121.538 23.5625 121.9 23.5625C122.385 23.5625 122.785 23.4453 123.1 23.2109C123.415 22.9766 123.572 22.6094 123.572 22.1094V20.8906H123.494C123.426 21 123.33 21.1354 123.205 21.2969C123.083 21.4557 122.906 21.5977 122.674 21.7227C122.445 21.8451 122.135 21.9062 121.744 21.9062C121.26 21.9062 120.825 21.7917 120.439 21.5625C120.057 21.3333 119.753 21 119.529 20.5625C119.308 20.125 119.197 19.5937 119.197 18.9687C119.197 18.3542 119.305 17.819 119.521 17.3633C119.738 16.9049 120.038 16.5508 120.424 16.3008C120.809 16.0482 121.255 15.9219 121.76 15.9219C122.15 15.9219 122.46 15.987 122.689 16.1172C122.921 16.2448 123.098 16.3906 123.221 16.5547C123.346 16.7161 123.442 16.849 123.51 16.9531H123.604V16H124.494V22.1719C124.494 22.6875 124.377 23.1068 124.143 23.4297C123.911 23.7552 123.598 23.9935 123.205 24.1445C122.814 24.2982 122.38 24.375 121.9 24.375ZM121.869 21.0781C122.239 21.0781 122.551 20.9935 122.807 20.8242C123.062 20.6549 123.256 20.4115 123.389 20.0938C123.521 19.776 123.588 19.3958 123.588 18.9531C123.588 18.5208 123.523 18.1393 123.393 17.8086C123.262 17.4779 123.07 17.2187 122.814 17.0312C122.559 16.8437 122.244 16.75 121.869 16.75C121.479 16.75 121.153 16.849 120.893 17.0469C120.635 17.2448 120.441 17.5104 120.311 17.8438C120.183 18.1771 120.119 18.5469 120.119 18.9531C120.119 19.3698 120.184 19.7383 120.314 20.0586C120.447 20.3763 120.643 20.6263 120.9 20.8086C121.161 20.9883 121.484 21.0781 121.869 21.0781ZM128.697 22.125C128.119 22.125 127.62 21.9974 127.201 21.7422C126.785 21.4844 126.463 21.125 126.236 20.6641C126.012 20.2005 125.9 19.6615 125.9 19.0469C125.9 18.4323 126.012 17.8906 126.236 17.4219C126.463 16.9505 126.778 16.5833 127.182 16.3203C127.588 16.0547 128.062 15.9219 128.604 15.9219C128.916 15.9219 129.225 15.974 129.529 16.0781C129.834 16.1823 130.111 16.3516 130.361 16.5859C130.611 16.8177 130.811 17.125 130.959 17.5078C131.107 17.8906 131.182 18.362 131.182 18.9219V19.3125H126.557V18.5156H130.244C130.244 18.1771 130.176 17.875 130.041 17.6094C129.908 17.3437 129.718 17.1341 129.471 16.9805C129.226 16.8268 128.937 16.75 128.604 16.75C128.236 16.75 127.919 16.8411 127.65 17.0234C127.385 17.2031 127.18 17.4375 127.037 17.7266C126.894 18.0156 126.822 18.3255 126.822 18.6562V19.1875C126.822 19.6406 126.9 20.0247 127.057 20.3398C127.215 20.6523 127.436 20.8906 127.717 21.0547C127.998 21.2161 128.325 21.2969 128.697 21.2969C128.939 21.2969 129.158 21.263 129.354 21.1953C129.551 21.125 129.722 21.0208 129.865 20.8828C130.008 20.7422 130.119 20.5677 130.197 20.3594L131.088 20.6094C130.994 20.9115 130.837 21.1771 130.615 21.4062C130.394 21.6328 130.12 21.8099 129.795 21.9375C129.469 22.0625 129.104 22.125 128.697 22.125Z" fill="white"/>
<defs>
<radialGradient id="paint0_radial_0_1" cx="0" cy="0" r="1" gradientUnits="userSpaceOnUse" gradientTransform="translate(67.2789 1004.79) rotate(79.333) scale(55.3853 57.3931)">
<stop stop-color="#8A609F"/>
<stop offset="0.661458" stop-color="#9F6060"/>
<stop offset="1" stop-color="#804D4D"/>
</radialGradient>
<linearGradient id="paint1_linear_0_1" x1="180" y1="0" x2="180" y2="800" gradientUnits="userSpaceOnUse">
<stop stop-color="#503030"/>
<stop offset="0.510317" stop-color="#503050" stop-opacity="0"/>
<stop offset="0.510417" stop-color="#503030" stop-opacity="0"/>
<stop offset="1" stop-color="#503050"/>
</linearGradient>
<linearGradient id="paint2_linear_0_1" x1="348.404" y1="577" x2="348.404" y2="651" gradientUnits="userSpaceOnUse">
<stop stop-color="#C5AFCF"/>
<stop offset="0.71875" stop-color="#8A609F"/>
<stop offset="1" stop-color="#503050"/>
</linearGradient>
<linearGradient id="paint3_linear_0_1" x1="348.404" y1="687" x2="348.404" y2="751" gradientUnits="userSpaceOnUse">
<stop stop-color="#BC8F8F"/>
<stop offset="0.28125" stop-color="#9F6060"/>
<stop offset="1" stop-color="#503030"/>
</linearGradient>
<radialGradient id="paint4_radial_0_1" cx="0" cy="0" r="1" gradientUnits="userSpaceOnUse" gradientTransform="translate(193.842 278.393) rotate(79.333) scale(27.6926 28.6966)">
<stop stop-color="#8A609F"/>
<stop offset="0.661458" stop-color="#9F6060"/>
<stop offset="1" stop-color="#804D4D"/>
</radialGradient>
<linearGradient id="paint5_linear_0_1" x1="236.404" y1="281.5" x2="236.404" y2="302.5" gradientUnits="userSpaceOnUse">
<stop stop-color="#8A609F"/>
<stop offset="0.6875" stop-color="#9F6060"/>
<stop offset="1" stop-color="#804D4D"/>
</linearGradient>
<linearGradient id="paint6_linear_0_1" x1="720" y1="0" x2="720" y2="1024" gradientUnits="userSpaceOnUse">
<stop stop-color="#503030"/>
<stop offset="0.489583" stop-color="#503030" stop-opacity="0"/>
<stop offset="0.489683" stop-color="#503050" stop-opacity="0"/>
<stop offset="1" stop-color="#503050"/>
</linearGradient>
<linearGradient id="paint7_linear_0_1" x1="1312.4" y1="378" x2="1312.4" y2="526" gradientUnits="userSpaceOnUse">
<stop stop-color="#C5AFCF"/>
<stop offset="0.71875" stop-color="#8A609F"/>
<stop offset="1" stop-color="#503050"/>
</linearGradient>
<linearGradient id="paint8_linear_0_1" x1="1312.4" y1="598" x2="1312.4" y2="726" gradientUnits="userSpaceOnUse">
<stop stop-color="#BC8F8F"/>
<stop offset="0.28125" stop-color="#9F6060"/>
<stop offset="1" stop-color="#503030"/>
</linearGradient>
<radialGradient id="paint9_radial_0_1" cx="0" cy="0" r="1" gradientUnits="userSpaceOnUse" gradientTransform="translate(642.875 68.7855) rotate(79.333) scale(55.3853 57.3931)">
<stop stop-color="#8A609F"/>
<stop offset="0.661458" stop-color="#9F6060"/>
<stop offset="1" stop-color="#804D4D"/>
</radialGradient>
<linearGradient id="paint10_linear_0_1" x1="725" y1="77.5" x2="725" y2="114.5" gradientUnits="userSpaceOnUse">
<stop stop-color="#8A609F"/>
<stop offset="0.6875" stop-color="#9F6060"/>
<stop offset="1" stop-color="#804D4D"/>
</linearGradient>
<clipPath id="clip0_0_1">
<rect width="360" height="800" fill="white" transform="translate(168.404 264)"/>
</clipPath>
<clipPath id="clip1_0_1">
<rect width="1440" height="1024" fill="white" transform="translate(592.404 40)"/>
</clipPath>
</defs>
</svg>
