<svg xmlns="http://www.w3.org/2000/svg" width="32" height="32" fill="none" viewBox="0 0 33 32"><path fill="url(#a)" fill-rule="evenodd" d="M.719 23.674c-.689-1.164-.21-2.615 1.07-3.24l11.703-5.726-2.244-11.911c-.166-.885.226-1.78 1.015-2.319a2.85 2.85 0 0 1 2.732-.236L30.927 7.31c.887.393 1.457 1.205 1.477 2.103.02.897-.515 1.729-1.384 2.154l-11.703 5.726 2.244 11.91c.245 1.303-.717 2.54-2.15 2.763-1.431.223-2.792-.652-3.037-1.954L14.43 19.684 4.283 24.648c-1.28.626-2.876.19-3.564-.974M18.38 12.316l5.626-2.752-6.704-2.974z" clip-rule="evenodd"/><defs><radialGradient id="a" cx="0" cy="0" r="1" gradientTransform="matrix(5.12592 27.21406 -28.20071 5.31176 13.842 2.393)" gradientUnits="userSpaceOnUse"><stop stop-color="#8A609F"/><stop offset=".75" stop-color="#9F6060"/><stop offset="1" stop-color="#804D4D"/></radialGradient></defs></svg>