<svg xmlns="http://www.w3.org/2000/svg" width="128" height="64" fill="none" viewBox="0 0 129 64"><path fill="url(#a)" fill-rule="evenodd" d="M.63 47.348c-1.378-2.327-.42-5.23 2.14-6.481l23.405-11.451-4.487-23.822c-.333-1.77.45-3.56 2.03-4.637 1.58-1.077 3.689-1.26 5.463-.473l31.864 14.133c1.774.787 2.915 2.411 2.954 4.206.04 1.795-1.03 3.46-2.768 4.31l-23.405 11.45 4.487 23.823c.49 2.605-1.434 5.078-4.298 5.525-2.865.446-5.585-1.304-6.075-3.91l-3.89-20.654-20.294 9.928c-2.559 1.252-5.75.38-7.127-1.947m35.322-22.716 11.252-5.505-13.41-5.948z" clip-rule="evenodd"/><path fill="url(#b)" d="M111.576 21.616h8.32c2.027 0 3.627.139 4.8.416 1.195.277 2.059.768 2.592 1.472.555.683.832 1.643.832 2.88v3.936c0 1.365-.298 2.432-.896 3.2-.576.768-1.504 1.312-2.784 1.632-1.258.32-2.965.48-5.12.48h-2.752v6.752h-4.992zm8.16 10.592c1.302 0 2.219-.15 2.752-.448.534-.32.8-.853.8-1.6v-3.328c0-.683-.256-1.13-.768-1.344-.49-.213-1.44-.32-2.848-.32h-3.104v7.04z"/><path fill="url(#c)" d="M95.648 31.792 88.32 21.616h5.76l4.448 6.912 4.416-6.912h5.76l-7.328 10.176 7.68 10.592h-5.792l-4.736-7.36-4.768 7.36H88z"/><defs><linearGradient id="a" x1="108.539" x2="108.539" y1="12.384" y2="49.384" gradientUnits="userSpaceOnUse"><stop stop-color="#8A609F"/><stop offset=".75" stop-color="#9F6060"/><stop offset="1" stop-color="#804D4D"/></linearGradient><linearGradient id="b" x1="108.539" x2="108.539" y1="12.384" y2="49.384" gradientUnits="userSpaceOnUse"><stop stop-color="#8A609F"/><stop offset=".75" stop-color="#9F6060"/><stop offset="1" stop-color="#804D4D"/></linearGradient><linearGradient id="c" x1="108.539" x2="108.539" y1="12.384" y2="49.384" gradientUnits="userSpaceOnUse"><stop stop-color="#8A609F"/><stop offset=".75" stop-color="#9F6060"/><stop offset="1" stop-color="#804D4D"/></linearGradient></defs></svg>